<svg width="504" height="410" viewBox="0 0 504 410" fill="none" xmlns="http://www.w3.org/2000/svg">
<rect width="504" height="410" rx="10" fill="#FCFBFB"/>
<path fill-rule="evenodd" clip-rule="evenodd" d="M37 346C40.866 346 44 342.866 44 339C44 335.134 40.866 332 37 332C33.134 332 30 335.134 30 339C30 342.866 33.134 346 37 346Z" fill="#F56B2A"/>
<path d="M54.714 332.878H61.434V334.18H58.718V343H57.36V334.18H54.714V332.878ZM64.2005 343.14C63.6499 343.14 63.1505 343.023 62.7025 342.79C62.2639 342.557 61.9139 342.216 61.6525 341.768C61.4005 341.311 61.2745 340.755 61.2745 340.102C61.2745 339.449 61.4052 338.889 61.6665 338.422C61.9372 337.955 62.2965 337.596 62.7445 337.344C63.2019 337.092 63.7012 336.966 64.2425 336.966C64.7652 336.966 65.2085 337.078 65.5725 337.302C65.9365 337.526 66.2212 337.797 66.4265 338.114L66.5245 337.204H67.7285V343H66.4265V342.048C66.3145 342.197 66.1512 342.356 65.9365 342.524C65.7312 342.692 65.4792 342.837 65.1805 342.958C64.8912 343.079 64.5645 343.14 64.2005 343.14ZM64.5505 342.062C65.0265 342.062 65.4325 341.931 65.7685 341.67C66.1045 341.399 66.3239 341.035 66.4265 340.578V339.43C66.3145 339.029 66.0812 338.697 65.7265 338.436C65.3719 338.175 64.9659 338.044 64.5085 338.044C64.1539 338.044 63.8319 338.128 63.5425 338.296C63.2532 338.464 63.0199 338.697 62.8425 338.996C62.6745 339.295 62.5905 339.64 62.5905 340.032C62.5905 340.415 62.6792 340.76 62.8565 341.068C63.0339 341.367 63.2719 341.609 63.5705 341.796C63.8692 341.973 64.1959 342.062 64.5505 342.062ZM71.1573 337.204L71.2553 338.562C71.414 338.235 71.6333 337.955 71.9133 337.722C72.1933 337.479 72.4827 337.297 72.7813 337.176C73.0893 337.045 73.3553 336.975 73.5793 336.966L73.5233 338.268C73.0847 338.249 72.6973 338.338 72.3613 338.534C72.0253 338.721 71.764 338.977 71.5773 339.304C71.3907 339.631 71.2973 339.981 71.2973 340.354V343H69.9953V337.204H71.1573ZM77.8129 345.87C77.1689 345.87 76.6322 345.758 76.2029 345.534C75.7736 345.319 75.3769 345.044 75.0129 344.708L75.7829 343.812C76.0816 344.111 76.3896 344.335 76.7069 344.484C77.0242 344.643 77.3836 344.722 77.7849 344.722C78.4382 344.722 78.9376 344.563 79.2829 344.246C79.6282 343.938 79.8056 343.527 79.8149 343.014V341.95C79.6189 342.295 79.3156 342.58 78.9049 342.804C78.4942 343.028 78.0089 343.14 77.4489 343.14C76.9076 343.14 76.4129 343.005 75.9649 342.734C75.5262 342.463 75.1716 342.099 74.9009 341.642C74.6396 341.175 74.5089 340.653 74.5089 340.074C74.5089 339.467 74.6489 338.931 74.9289 338.464C75.2089 337.997 75.5776 337.633 76.0349 337.372C76.4922 337.101 76.9916 336.966 77.5329 336.966C78.0369 336.966 78.4942 337.064 78.9049 337.26C79.3156 337.456 79.6236 337.708 79.8289 338.016L79.9409 337.204H81.1309V343.042C81.1309 343.565 80.9956 344.041 80.7249 344.47C80.4542 344.899 80.0716 345.24 79.5769 345.492C79.0822 345.744 78.4942 345.87 77.8129 345.87ZM75.8249 340.032C75.8249 340.415 75.9136 340.76 76.0909 341.068C76.2682 341.367 76.5062 341.609 76.8049 341.796C77.1129 341.973 77.4536 342.062 77.8269 342.062C78.3309 342.062 78.7602 341.927 79.1149 341.656C79.4789 341.376 79.7122 341.021 79.8149 340.592V339.444C79.6936 339.033 79.4509 338.697 79.0869 338.436C78.7229 338.175 78.3029 338.044 77.8269 338.044C77.4442 338.044 77.0989 338.128 76.7909 338.296C76.4922 338.464 76.2542 338.697 76.0769 338.996C75.9089 339.295 75.8249 339.64 75.8249 340.032ZM86.0818 343.14C85.4284 343.14 84.8591 343.009 84.3738 342.748C83.8978 342.477 83.5291 342.109 83.2678 341.642C83.0158 341.175 82.8898 340.648 82.8898 340.06C82.8898 339.491 83.0298 338.973 83.3098 338.506C83.5991 338.03 83.9864 337.657 84.4718 337.386C84.9664 337.106 85.5124 336.966 86.1098 336.966C86.8751 336.966 87.5098 337.19 88.0138 337.638C88.5178 338.086 88.8631 338.702 89.0498 339.486L84.4578 341.096C84.6164 341.385 84.8404 341.614 85.1298 341.782C85.4191 341.941 85.7458 342.02 86.1098 342.02C86.3711 342.02 86.6184 341.973 86.8518 341.88C87.0851 341.787 87.3091 341.665 87.5238 341.516L88.1258 342.482C87.8271 342.678 87.4958 342.837 87.1318 342.958C86.7771 343.079 86.4271 343.14 86.0818 343.14ZM84.1778 339.99C84.1684 340.102 84.1731 340.209 84.1918 340.312L87.5658 339.066C87.4351 338.786 87.2438 338.539 86.9918 338.324C86.7491 338.109 86.4224 338.002 86.0118 338.002C85.4798 338.002 85.0411 338.189 84.6958 338.562C84.3504 338.935 84.1778 339.411 84.1778 339.99ZM91.2272 334.656H92.5432V337.218H94.1252V338.254H92.5432V343H91.2272V338.254H90.1632V337.218H91.2272V334.656ZM99.4558 343L103.88 332.458H103.964L108.388 343H106.82L105.77 340.34H101.878L100.8 343H99.4558ZM102.354 339.164H105.308L103.866 335.482L102.354 339.164ZM111.134 337.204L111.218 338.31C111.442 337.89 111.746 337.563 112.128 337.33C112.52 337.087 112.968 336.966 113.472 336.966C113.948 336.966 114.345 337.078 114.662 337.302C114.989 337.526 115.19 337.829 115.264 338.212C115.498 337.82 115.801 337.517 116.174 337.302C116.557 337.078 116.963 336.966 117.392 336.966C117.952 336.966 118.396 337.129 118.722 337.456C119.058 337.783 119.236 338.198 119.254 338.702V343H117.952V339.192C117.934 338.893 117.854 338.646 117.714 338.45C117.584 338.245 117.355 338.133 117.028 338.114C116.683 338.114 116.38 338.217 116.118 338.422C115.857 338.618 115.652 338.879 115.502 339.206C115.353 339.533 115.274 339.878 115.264 340.242V343H113.948V339.192C113.939 338.893 113.86 338.646 113.71 338.45C113.57 338.245 113.332 338.133 112.996 338.114C112.66 338.114 112.362 338.217 112.1 338.422C111.839 338.618 111.634 338.879 111.484 339.206C111.335 339.533 111.26 339.883 111.26 340.256V343H109.958V337.204H111.134ZM121.007 340.046C121.007 339.467 121.142 338.945 121.413 338.478C121.693 338.011 122.076 337.643 122.561 337.372C123.046 337.101 123.602 336.966 124.227 336.966C124.852 336.966 125.403 337.101 125.879 337.372C126.355 337.643 126.724 338.011 126.985 338.478C127.256 338.945 127.391 339.467 127.391 340.046C127.391 340.625 127.256 341.147 126.985 341.614C126.724 342.081 126.35 342.454 125.865 342.734C125.389 343.005 124.834 343.14 124.199 343.14C123.583 343.14 123.032 343.014 122.547 342.762C122.071 342.51 121.693 342.151 121.413 341.684C121.142 341.217 121.007 340.671 121.007 340.046ZM122.323 340.06C122.323 340.433 122.402 340.774 122.561 341.082C122.729 341.381 122.953 341.619 123.233 341.796C123.513 341.973 123.83 342.062 124.185 342.062C124.549 342.062 124.871 341.973 125.151 341.796C125.431 341.619 125.65 341.381 125.809 341.082C125.977 340.774 126.061 340.433 126.061 340.06C126.061 339.687 125.977 339.351 125.809 339.052C125.65 338.744 125.431 338.501 125.151 338.324C124.871 338.137 124.549 338.044 124.185 338.044C123.83 338.044 123.508 338.137 123.219 338.324C122.939 338.511 122.72 338.758 122.561 339.066C122.402 339.365 122.323 339.696 122.323 340.06ZM130.988 343.224C130.456 343.224 130.017 343.065 129.672 342.748C129.327 342.421 129.149 342.001 129.14 341.488V337.204H130.442V341.026C130.461 341.343 130.554 341.6 130.722 341.796C130.89 341.992 131.151 342.095 131.506 342.104C131.823 342.104 132.113 342.011 132.374 341.824C132.635 341.628 132.841 341.367 132.99 341.04C133.149 340.704 133.228 340.326 133.228 339.906V337.204H134.53V343H133.354L133.256 341.908C133.069 342.291 132.771 342.608 132.36 342.86C131.959 343.103 131.501 343.224 130.988 343.224ZM137.972 337.204L138.056 338.324C138.252 337.913 138.555 337.587 138.966 337.344C139.377 337.101 139.853 336.98 140.394 336.98C140.935 336.98 141.379 337.143 141.724 337.47C142.079 337.787 142.265 338.203 142.284 338.716V343H140.968V339.164C140.949 338.856 140.851 338.604 140.674 338.408C140.506 338.212 140.24 338.109 139.876 338.1C139.372 338.1 138.947 338.305 138.602 338.716C138.266 339.117 138.098 339.64 138.098 340.284V343H136.796V337.204H137.972ZM145.094 334.656H146.41V337.218H147.992V338.254H146.41V343H145.094V338.254H144.03V337.218H145.094V334.656ZM153.631 339.416H156.235V340.564H153.631V339.416Z" fill="black"/>
<path d="M171.791 343.322L164.357 335.79L164.385 343H163.013V332.57H163.083L170.503 340.214L170.475 332.878H171.833V343.322H171.791ZM176.717 343.112C176.222 343.112 175.746 343.023 175.289 342.846C174.841 342.659 174.477 342.431 174.197 342.16L174.925 341.096C175.112 341.311 175.359 341.483 175.667 341.614C175.975 341.745 176.288 341.81 176.605 341.81C177.118 341.81 177.538 341.647 177.865 341.32C178.201 340.993 178.369 340.564 178.369 340.032C178.369 339.491 178.215 339.038 177.907 338.674C177.608 338.31 177.16 338.128 176.563 338.128C176.236 338.128 175.933 338.175 175.653 338.268C175.373 338.352 175.084 338.483 174.785 338.66H174.771V333.788H179.181V335.09H175.947V337.106C176.246 337.022 176.558 336.98 176.885 336.98C177.51 336.98 178.038 337.12 178.467 337.4C178.896 337.671 179.218 338.035 179.433 338.492C179.657 338.949 179.769 339.449 179.769 339.99C179.769 340.578 179.634 341.11 179.363 341.586C179.102 342.053 178.742 342.426 178.285 342.706C177.828 342.977 177.305 343.112 176.717 343.112ZM184.983 343.042C184.218 343.042 183.546 342.855 182.967 342.482C182.389 342.099 181.936 341.558 181.609 340.858C181.283 340.158 181.119 339.323 181.119 338.352C181.119 336.803 181.469 335.636 182.169 334.852C182.869 334.068 183.807 333.681 184.983 333.69C185.739 333.681 186.407 333.867 186.985 334.25C187.573 334.623 188.031 335.16 188.357 335.86C188.684 336.56 188.847 337.391 188.847 338.352C188.847 339.351 188.684 340.2 188.357 340.9C188.031 341.6 187.573 342.132 186.985 342.496C186.407 342.86 185.739 343.042 184.983 343.042ZM184.969 341.74C185.511 341.74 185.963 341.6 186.327 341.32C186.691 341.031 186.967 340.629 187.153 340.116C187.34 339.603 187.438 339.005 187.447 338.324C187.438 337.335 187.223 336.532 186.803 335.916C186.393 335.3 185.781 334.997 184.969 335.006C184.437 334.997 183.989 335.137 183.625 335.426C183.261 335.706 182.986 336.098 182.799 336.602C182.613 337.106 182.519 337.689 182.519 338.352C182.519 339.024 182.613 339.617 182.799 340.13C182.986 340.634 183.261 341.031 183.625 341.32C183.989 341.6 184.437 341.74 184.969 341.74ZM193.72 343.042C192.954 343.042 192.282 342.855 191.704 342.482C191.125 342.099 190.672 341.558 190.346 340.858C190.019 340.158 189.856 339.323 189.856 338.352C189.856 336.803 190.206 335.636 190.906 334.852C191.606 334.068 192.544 333.681 193.72 333.69C194.476 333.681 195.143 333.867 195.722 334.25C196.31 334.623 196.767 335.16 197.094 335.86C197.42 336.56 197.584 337.391 197.584 338.352C197.584 339.351 197.42 340.2 197.094 340.9C196.767 341.6 196.31 342.132 195.722 342.496C195.143 342.86 194.476 343.042 193.72 343.042ZM193.706 341.74C194.247 341.74 194.7 341.6 195.064 341.32C195.428 341.031 195.703 340.629 195.89 340.116C196.076 339.603 196.174 339.005 196.184 338.324C196.174 337.335 195.96 336.532 195.54 335.916C195.129 335.3 194.518 334.997 193.706 335.006C193.174 334.997 192.726 335.137 192.362 335.426C191.998 335.706 191.722 336.098 191.536 336.602C191.349 337.106 191.256 337.689 191.256 338.352C191.256 339.024 191.349 339.617 191.536 340.13C191.722 340.634 191.998 341.031 192.362 341.32C192.726 341.6 193.174 341.74 193.706 341.74ZM200.412 341.768C200.197 342.263 199.987 342.753 199.782 343.238C199.586 343.723 199.39 344.209 199.194 344.694H198.116C198.303 344.209 198.485 343.723 198.662 343.238C198.849 342.753 199.035 342.263 199.222 341.768H200.412ZM205.3 343.042C204.534 343.042 203.862 342.855 203.284 342.482C202.705 342.099 202.252 341.558 201.926 340.858C201.599 340.158 201.436 339.323 201.436 338.352C201.436 336.803 201.786 335.636 202.486 334.852C203.186 334.068 204.124 333.681 205.3 333.69C206.056 333.681 206.723 333.867 207.302 334.25C207.89 334.623 208.347 335.16 208.674 335.86C209 336.56 209.164 337.391 209.164 338.352C209.164 339.351 209 340.2 208.674 340.9C208.347 341.6 207.89 342.132 207.302 342.496C206.723 342.86 206.056 343.042 205.3 343.042ZM205.286 341.74C205.827 341.74 206.28 341.6 206.644 341.32C207.008 341.031 207.283 340.629 207.47 340.116C207.656 339.603 207.754 339.005 207.764 338.324C207.754 337.335 207.54 336.532 207.12 335.916C206.709 335.3 206.098 334.997 205.286 335.006C204.754 334.997 204.306 335.137 203.942 335.426C203.578 335.706 203.302 336.098 203.116 336.602C202.929 337.106 202.836 337.689 202.836 338.352C202.836 339.024 202.929 339.617 203.116 340.13C203.302 340.634 203.578 341.031 203.942 341.32C204.306 341.6 204.754 341.74 205.286 341.74ZM214.036 343.042C213.271 343.042 212.599 342.855 212.02 342.482C211.441 342.099 210.989 341.558 210.662 340.858C210.335 340.158 210.172 339.323 210.172 338.352C210.172 336.803 210.522 335.636 211.222 334.852C211.922 334.068 212.86 333.681 214.036 333.69C214.792 333.681 215.459 333.867 216.038 334.25C216.626 334.623 217.083 335.16 217.41 335.86C217.737 336.56 217.9 337.391 217.9 338.352C217.9 339.351 217.737 340.2 217.41 340.9C217.083 341.6 216.626 342.132 216.038 342.496C215.459 342.86 214.792 343.042 214.036 343.042ZM214.022 341.74C214.563 341.74 215.016 341.6 215.38 341.32C215.744 341.031 216.019 340.629 216.206 340.116C216.393 339.603 216.491 339.005 216.5 338.324C216.491 337.335 216.276 336.532 215.856 335.916C215.445 335.3 214.834 334.997 214.022 335.006C213.49 334.997 213.042 335.137 212.678 335.426C212.314 335.706 212.039 336.098 211.852 336.602C211.665 337.106 211.572 337.689 211.572 338.352C211.572 339.024 211.665 339.617 211.852 340.13C212.039 340.634 212.314 341.031 212.678 341.32C213.042 341.6 213.49 341.74 214.022 341.74ZM222.772 343.042C222.007 343.042 221.335 342.855 220.756 342.482C220.178 342.099 219.725 341.558 219.398 340.858C219.072 340.158 218.908 339.323 218.908 338.352C218.908 336.803 219.258 335.636 219.958 334.852C220.658 334.068 221.596 333.681 222.772 333.69C223.528 333.681 224.196 333.867 224.774 334.25C225.362 334.623 225.82 335.16 226.146 335.86C226.473 336.56 226.636 337.391 226.636 338.352C226.636 339.351 226.473 340.2 226.146 340.9C225.82 341.6 225.362 342.132 224.774 342.496C224.196 342.86 223.528 343.042 222.772 343.042ZM222.758 341.74C223.3 341.74 223.752 341.6 224.116 341.32C224.48 341.031 224.756 340.629 224.942 340.116C225.129 339.603 225.227 339.005 225.236 338.324C225.227 337.335 225.012 336.532 224.592 335.916C224.182 335.3 223.57 334.997 222.758 335.006C222.226 334.997 221.778 335.137 221.414 335.426C221.05 335.706 220.775 336.098 220.588 336.602C220.402 337.106 220.308 337.689 220.308 338.352C220.308 339.024 220.402 339.617 220.588 340.13C220.775 340.634 221.05 341.031 221.414 341.32C221.778 341.6 222.226 341.74 222.758 341.74ZM229.465 341.768C229.25 342.263 229.04 342.753 228.835 343.238C228.639 343.723 228.443 344.209 228.247 344.694H227.169C227.355 344.209 227.537 343.723 227.715 343.238C227.901 342.753 228.088 342.263 228.275 341.768H229.465ZM234.352 343.042C233.587 343.042 232.915 342.855 232.336 342.482C231.758 342.099 231.305 341.558 230.978 340.858C230.652 340.158 230.488 339.323 230.488 338.352C230.488 336.803 230.838 335.636 231.538 334.852C232.238 334.068 233.176 333.681 234.352 333.69C235.108 333.681 235.776 333.867 236.354 334.25C236.942 334.623 237.4 335.16 237.726 335.86C238.053 336.56 238.216 337.391 238.216 338.352C238.216 339.351 238.053 340.2 237.726 340.9C237.4 341.6 236.942 342.132 236.354 342.496C235.776 342.86 235.108 343.042 234.352 343.042ZM234.338 341.74C234.88 341.74 235.332 341.6 235.696 341.32C236.06 341.031 236.336 340.629 236.522 340.116C236.709 339.603 236.807 339.005 236.816 338.324C236.807 337.335 236.592 336.532 236.172 335.916C235.762 335.3 235.15 334.997 234.338 335.006C233.806 334.997 233.358 335.137 232.994 335.426C232.63 335.706 232.355 336.098 232.168 336.602C231.982 337.106 231.888 337.689 231.888 338.352C231.888 339.024 231.982 339.617 232.168 340.13C232.355 340.634 232.63 341.031 232.994 341.32C233.358 341.6 233.806 341.74 234.338 341.74ZM243.089 343.042C242.323 343.042 241.651 342.855 241.073 342.482C240.494 342.099 240.041 341.558 239.715 340.858C239.388 340.158 239.225 339.323 239.225 338.352C239.225 336.803 239.575 335.636 240.275 334.852C240.975 334.068 241.913 333.681 243.089 333.69C243.845 333.681 244.512 333.867 245.091 334.25C245.679 334.623 246.136 335.16 246.463 335.86C246.789 336.56 246.953 337.391 246.953 338.352C246.953 339.351 246.789 340.2 246.463 340.9C246.136 341.6 245.679 342.132 245.091 342.496C244.512 342.86 243.845 343.042 243.089 343.042ZM243.075 341.74C243.616 341.74 244.069 341.6 244.433 341.32C244.797 341.031 245.072 340.629 245.259 340.116C245.445 339.603 245.543 339.005 245.553 338.324C245.543 337.335 245.329 336.532 244.909 335.916C244.498 335.3 243.887 334.997 243.075 335.006C242.543 334.997 242.095 335.137 241.731 335.426C241.367 335.706 241.091 336.098 240.905 336.602C240.718 337.106 240.625 337.689 240.625 338.352C240.625 339.024 240.718 339.617 240.905 340.13C241.091 340.634 241.367 341.031 241.731 341.32C242.095 341.6 242.543 341.74 243.075 341.74ZM251.825 343.042C251.06 343.042 250.388 342.855 249.809 342.482C249.23 342.099 248.778 341.558 248.451 340.858C248.124 340.158 247.961 339.323 247.961 338.352C247.961 336.803 248.311 335.636 249.011 334.852C249.711 334.068 250.649 333.681 251.825 333.69C252.581 333.681 253.248 333.867 253.827 334.25C254.415 334.623 254.872 335.16 255.199 335.86C255.526 336.56 255.689 337.391 255.689 338.352C255.689 339.351 255.526 340.2 255.199 340.9C254.872 341.6 254.415 342.132 253.827 342.496C253.248 342.86 252.581 343.042 251.825 343.042ZM251.811 341.74C252.352 341.74 252.805 341.6 253.169 341.32C253.533 341.031 253.808 340.629 253.995 340.116C254.182 339.603 254.28 339.005 254.289 338.324C254.28 337.335 254.065 336.532 253.645 335.916C253.234 335.3 252.623 334.997 251.811 335.006C251.279 334.997 250.831 335.137 250.467 335.426C250.103 335.706 249.828 336.098 249.641 336.602C249.454 337.106 249.361 337.689 249.361 338.352C249.361 339.024 249.454 339.617 249.641 340.13C249.828 340.634 250.103 341.031 250.467 341.32C250.831 341.6 251.279 341.74 251.811 341.74ZM256.669 342.258C256.669 342.043 256.744 341.866 256.893 341.726C257.052 341.577 257.225 341.502 257.411 341.502C257.579 341.502 257.743 341.577 257.901 341.726C258.06 341.866 258.139 342.043 258.139 342.258C258.139 342.482 258.06 342.664 257.901 342.804C257.743 342.935 257.579 343 257.411 343C257.225 343 257.052 342.935 256.893 342.804C256.744 342.664 256.669 342.482 256.669 342.258ZM262.927 343.042C262.161 343.042 261.489 342.855 260.911 342.482C260.332 342.099 259.879 341.558 259.553 340.858C259.226 340.158 259.063 339.323 259.063 338.352C259.063 336.803 259.413 335.636 260.113 334.852C260.813 334.068 261.751 333.681 262.927 333.69C263.683 333.681 264.35 333.867 264.929 334.25C265.517 334.623 265.974 335.16 266.301 335.86C266.627 336.56 266.791 337.391 266.791 338.352C266.791 339.351 266.627 340.2 266.301 340.9C265.974 341.6 265.517 342.132 264.929 342.496C264.35 342.86 263.683 343.042 262.927 343.042ZM262.913 341.74C263.454 341.74 263.907 341.6 264.271 341.32C264.635 341.031 264.91 340.629 265.097 340.116C265.283 339.603 265.381 339.005 265.391 338.324C265.381 337.335 265.167 336.532 264.747 335.916C264.336 335.3 263.725 334.997 262.913 335.006C262.381 334.997 261.933 335.137 261.569 335.426C261.205 335.706 260.929 336.098 260.743 336.602C260.556 337.106 260.463 337.689 260.463 338.352C260.463 339.024 260.556 339.617 260.743 340.13C260.929 340.634 261.205 341.031 261.569 341.32C261.933 341.6 262.381 341.74 262.913 341.74ZM271.663 343.042C270.898 343.042 270.226 342.855 269.647 342.482C269.068 342.099 268.616 341.558 268.289 340.858C267.962 340.158 267.799 339.323 267.799 338.352C267.799 336.803 268.149 335.636 268.849 334.852C269.549 334.068 270.487 333.681 271.663 333.69C272.419 333.681 273.086 333.867 273.665 334.25C274.253 334.623 274.71 335.16 275.037 335.86C275.364 336.56 275.527 337.391 275.527 338.352C275.527 339.351 275.364 340.2 275.037 340.9C274.71 341.6 274.253 342.132 273.665 342.496C273.086 342.86 272.419 343.042 271.663 343.042ZM271.649 341.74C272.19 341.74 272.643 341.6 273.007 341.32C273.371 341.031 273.646 340.629 273.833 340.116C274.02 339.603 274.118 339.005 274.127 338.324C274.118 337.335 273.903 336.532 273.483 335.916C273.072 335.3 272.461 334.997 271.649 335.006C271.117 334.997 270.669 335.137 270.305 335.426C269.941 335.706 269.666 336.098 269.479 336.602C269.292 337.106 269.199 337.689 269.199 338.352C269.199 339.024 269.292 339.617 269.479 340.13C269.666 340.634 269.941 341.031 270.305 341.32C270.669 341.6 271.117 341.74 271.649 341.74Z" fill="#F56B2A"/>
<path fill-rule="evenodd" clip-rule="evenodd" d="M37 376C40.866 376 44 372.866 44 369C44 365.134 40.866 362 37 362C33.134 362 30 365.134 30 369C30 372.866 33.134 376 37 376Z" fill="#FEE9DF"/>
<path d="M55.456 362.878H56.814V371.684H61.966V373H55.456V362.878ZM63.339 370.046C63.339 369.467 63.4743 368.945 63.745 368.478C64.025 368.011 64.4077 367.643 64.893 367.372C65.3783 367.101 65.9337 366.966 66.559 366.966C67.1843 366.966 67.735 367.101 68.211 367.372C68.687 367.643 69.0557 368.011 69.317 368.478C69.5877 368.945 69.723 369.467 69.723 370.046C69.723 370.625 69.5877 371.147 69.317 371.614C69.0557 372.081 68.6823 372.454 68.197 372.734C67.721 373.005 67.1657 373.14 66.531 373.14C65.915 373.14 65.3643 373.014 64.879 372.762C64.403 372.51 64.025 372.151 63.745 371.684C63.4743 371.217 63.339 370.671 63.339 370.046ZM64.655 370.06C64.655 370.433 64.7343 370.774 64.893 371.082C65.061 371.381 65.285 371.619 65.565 371.796C65.845 371.973 66.1623 372.062 66.517 372.062C66.881 372.062 67.203 371.973 67.483 371.796C67.763 371.619 67.9823 371.381 68.141 371.082C68.309 370.774 68.393 370.433 68.393 370.06C68.393 369.687 68.309 369.351 68.141 369.052C67.9823 368.744 67.763 368.501 67.483 368.324C67.203 368.137 66.881 368.044 66.517 368.044C66.1623 368.044 65.8403 368.137 65.551 368.324C65.271 368.511 65.0517 368.758 64.893 369.066C64.7343 369.365 64.655 369.696 64.655 370.06ZM73.8939 373.14C73.3432 373.14 72.8439 373.023 72.3959 372.79C71.9572 372.557 71.6072 372.216 71.3459 371.768C71.0939 371.311 70.9679 370.755 70.9679 370.102C70.9679 369.449 71.0986 368.889 71.3599 368.422C71.6306 367.955 71.9899 367.596 72.4379 367.344C72.8952 367.092 73.3946 366.966 73.9359 366.966C74.4586 366.966 74.9019 367.078 75.2659 367.302C75.6299 367.526 75.9146 367.797 76.1199 368.114L76.2179 367.204H77.4219V373H76.1199V372.048C76.0079 372.197 75.8446 372.356 75.6299 372.524C75.4246 372.692 75.1726 372.837 74.8739 372.958C74.5846 373.079 74.2579 373.14 73.8939 373.14ZM74.2439 372.062C74.7199 372.062 75.1259 371.931 75.4619 371.67C75.7979 371.399 76.0172 371.035 76.1199 370.578V369.43C76.0079 369.029 75.7746 368.697 75.4199 368.436C75.0652 368.175 74.6592 368.044 74.2019 368.044C73.8472 368.044 73.5252 368.128 73.2359 368.296C72.9466 368.464 72.7132 368.697 72.5359 368.996C72.3679 369.295 72.2839 369.64 72.2839 370.032C72.2839 370.415 72.3726 370.76 72.5499 371.068C72.7272 371.367 72.9652 371.609 73.2639 371.796C73.5626 371.973 73.8892 372.062 74.2439 372.062ZM80.8647 367.204L80.9487 368.324C81.1447 367.913 81.448 367.587 81.8587 367.344C82.2694 367.101 82.7454 366.98 83.2867 366.98C83.828 366.98 84.2714 367.143 84.6167 367.47C84.9714 367.787 85.158 368.203 85.1767 368.716V373H83.8607V369.164C83.842 368.856 83.744 368.604 83.5667 368.408C83.3987 368.212 83.1327 368.109 82.7687 368.1C82.2647 368.1 81.84 368.305 81.4947 368.716C81.1587 369.117 80.9907 369.64 80.9907 370.284V373H79.6887V367.204H80.8647ZM92.1787 373V362.878H94.9507C95.9493 362.878 96.7987 363.032 97.4987 363.34C98.1987 363.639 98.7633 364.04 99.1927 364.544C99.6313 365.048 99.9487 365.608 100.145 366.224C100.35 366.831 100.453 367.442 100.453 368.058C100.453 368.814 100.317 369.5 100.047 370.116C99.776 370.723 99.4073 371.241 98.9407 371.67C98.474 372.099 97.9373 372.431 97.3307 372.664C96.7333 372.888 96.1033 373 95.4407 373H92.1787ZM93.5367 371.684H95.1747C95.912 371.684 96.57 371.539 97.1487 371.25C97.7367 370.961 98.1987 370.541 98.5347 369.99C98.8707 369.43 99.0387 368.753 99.0387 367.96C99.0387 367.139 98.8613 366.448 98.5067 365.888C98.1613 365.328 97.6993 364.903 97.1207 364.614C96.5513 364.325 95.9447 364.18 95.3007 364.18H93.5367V371.684ZM102.411 367.204H103.713V373H102.411V367.204ZM102.313 365.118C102.313 364.903 102.393 364.731 102.551 364.6C102.719 364.46 102.901 364.39 103.097 364.39C103.293 364.39 103.471 364.46 103.629 364.6C103.788 364.731 103.867 364.903 103.867 365.118C103.867 365.333 103.788 365.51 103.629 365.65C103.471 365.781 103.293 365.846 103.097 365.846C102.901 365.846 102.719 365.781 102.551 365.65C102.393 365.51 102.313 365.333 102.313 365.118ZM107.618 373.112C107.198 373.112 106.792 373.042 106.4 372.902C106.017 372.753 105.7 372.533 105.448 372.244L106.008 371.488C106.241 371.721 106.488 371.899 106.75 372.02C107.011 372.132 107.263 372.188 107.506 372.188C107.786 372.188 108.028 372.132 108.234 372.02C108.448 371.908 108.556 371.717 108.556 371.446C108.556 371.241 108.486 371.077 108.346 370.956C108.215 370.835 108.042 370.741 107.828 370.676C107.622 370.601 107.408 370.527 107.184 370.452C106.194 370.135 105.7 369.57 105.7 368.758C105.7 368.459 105.774 368.175 105.924 367.904C106.082 367.633 106.311 367.414 106.61 367.246C106.918 367.078 107.296 366.994 107.744 366.994C108.145 366.994 108.504 367.045 108.822 367.148C109.139 367.251 109.438 367.414 109.718 367.638L109.2 368.436C109.032 368.268 108.831 368.142 108.598 368.058C108.374 367.965 108.168 367.913 107.982 367.904C107.73 367.904 107.506 367.965 107.31 368.086C107.123 368.207 107.03 368.375 107.03 368.59C107.02 368.786 107.081 368.945 107.212 369.066C107.342 369.178 107.51 369.271 107.716 369.346C107.93 369.421 108.145 369.491 108.36 369.556C108.78 369.696 109.134 369.887 109.424 370.13C109.722 370.373 109.872 370.727 109.872 371.194C109.872 371.717 109.685 372.169 109.312 372.552C108.938 372.925 108.374 373.112 107.618 373.112ZM115.237 373.14C114.742 373.14 114.303 373.047 113.921 372.86C113.547 372.664 113.239 372.417 112.997 372.118V373H111.695V362.15H112.997V367.988C113.23 367.68 113.557 367.433 113.977 367.246C114.397 367.059 114.873 366.966 115.405 366.966C115.918 366.966 116.389 367.092 116.819 367.344C117.248 367.587 117.593 367.937 117.855 368.394C118.116 368.851 118.247 369.388 118.247 370.004C118.247 370.667 118.107 371.231 117.827 371.698C117.547 372.165 117.178 372.524 116.721 372.776C116.263 373.019 115.769 373.14 115.237 373.14ZM114.957 372.02C115.526 372.02 115.993 371.833 116.357 371.46C116.73 371.077 116.917 370.592 116.917 370.004C116.917 369.631 116.828 369.295 116.651 368.996C116.483 368.688 116.249 368.445 115.951 368.268C115.661 368.091 115.33 368.002 114.957 368.002C114.471 368.002 114.051 368.133 113.697 368.394C113.342 368.655 113.109 368.991 112.997 369.402V370.592C113.109 371.003 113.337 371.343 113.683 371.614C114.028 371.885 114.453 372.02 114.957 372.02ZM121.841 373.224C121.309 373.224 120.871 373.065 120.525 372.748C120.18 372.421 120.003 372.001 119.993 371.488V367.204H121.295V371.026C121.314 371.343 121.407 371.6 121.575 371.796C121.743 371.992 122.005 372.095 122.359 372.104C122.677 372.104 122.966 372.011 123.227 371.824C123.489 371.628 123.694 371.367 123.843 371.04C124.002 370.704 124.081 370.326 124.081 369.906V367.204H125.383V373H124.207L124.109 371.908C123.923 372.291 123.624 372.608 123.213 372.86C122.812 373.103 122.355 373.224 121.841 373.224ZM128.812 367.204L128.91 368.562C129.068 368.235 129.288 367.955 129.568 367.722C129.848 367.479 130.137 367.297 130.436 367.176C130.744 367.045 131.01 366.975 131.234 366.966L131.178 368.268C130.739 368.249 130.352 368.338 130.016 368.534C129.68 368.721 129.418 368.977 129.232 369.304C129.045 369.631 128.952 369.981 128.952 370.354V373H127.65V367.204H128.812ZM134.551 373.112C134.131 373.112 133.725 373.042 133.333 372.902C132.951 372.753 132.633 372.533 132.381 372.244L132.941 371.488C133.175 371.721 133.422 371.899 133.683 372.02C133.945 372.132 134.197 372.188 134.439 372.188C134.719 372.188 134.962 372.132 135.167 372.02C135.382 371.908 135.489 371.717 135.489 371.446C135.489 371.241 135.419 371.077 135.279 370.956C135.149 370.835 134.976 370.741 134.761 370.676C134.556 370.601 134.341 370.527 134.117 370.452C133.128 370.135 132.633 369.57 132.633 368.758C132.633 368.459 132.708 368.175 132.857 367.904C133.016 367.633 133.245 367.414 133.543 367.246C133.851 367.078 134.229 366.994 134.677 366.994C135.079 366.994 135.438 367.045 135.755 367.148C136.073 367.251 136.371 367.414 136.651 367.638L136.133 368.436C135.965 368.268 135.765 368.142 135.531 368.058C135.307 367.965 135.102 367.913 134.915 367.904C134.663 367.904 134.439 367.965 134.243 368.086C134.057 368.207 133.963 368.375 133.963 368.59C133.954 368.786 134.015 368.945 134.145 369.066C134.276 369.178 134.444 369.271 134.649 369.346C134.864 369.421 135.079 369.491 135.293 369.556C135.713 369.696 136.068 369.887 136.357 370.13C136.656 370.373 136.805 370.727 136.805 371.194C136.805 371.717 136.619 372.169 136.245 372.552C135.872 372.925 135.307 373.112 134.551 373.112ZM141.316 373.14C140.663 373.14 140.093 373.009 139.608 372.748C139.132 372.477 138.763 372.109 138.502 371.642C138.25 371.175 138.124 370.648 138.124 370.06C138.124 369.491 138.264 368.973 138.544 368.506C138.833 368.03 139.221 367.657 139.706 367.386C140.201 367.106 140.747 366.966 141.344 366.966C142.109 366.966 142.744 367.19 143.248 367.638C143.752 368.086 144.097 368.702 144.284 369.486L139.692 371.096C139.851 371.385 140.075 371.614 140.364 371.782C140.653 371.941 140.98 372.02 141.344 372.02C141.605 372.02 141.853 371.973 142.086 371.88C142.319 371.787 142.543 371.665 142.758 371.516L143.36 372.482C143.061 372.678 142.73 372.837 142.366 372.958C142.011 373.079 141.661 373.14 141.316 373.14ZM139.412 369.99C139.403 370.102 139.407 370.209 139.426 370.312L142.8 369.066C142.669 368.786 142.478 368.539 142.226 368.324C141.983 368.109 141.657 368.002 141.246 368.002C140.714 368.002 140.275 368.189 139.93 368.562C139.585 368.935 139.412 369.411 139.412 369.99ZM148.268 373.14C147.717 373.14 147.222 373.014 146.784 372.762C146.354 372.501 146.014 372.137 145.762 371.67C145.519 371.194 145.398 370.643 145.398 370.018C145.398 369.383 145.528 368.837 145.79 368.38C146.051 367.923 146.41 367.573 146.868 367.33C147.334 367.087 147.852 366.966 148.422 366.966C148.86 366.966 149.28 367.059 149.682 367.246C150.083 367.423 150.405 367.671 150.648 367.988V362.15H151.95V373H150.634V372.104C150.354 372.412 150.008 372.664 149.598 372.86C149.196 373.047 148.753 373.14 148.268 373.14ZM148.674 372.02C149.178 372.02 149.602 371.885 149.948 371.614C150.293 371.343 150.517 370.979 150.62 370.522V369.43C150.517 369.019 150.284 368.679 149.92 368.408C149.565 368.137 149.15 368.002 148.674 368.002C148.319 368.002 147.992 368.091 147.694 368.268C147.395 368.436 147.157 368.669 146.98 368.968C146.802 369.267 146.714 369.612 146.714 370.004C146.714 370.377 146.802 370.718 146.98 371.026C147.157 371.334 147.395 371.577 147.694 371.754C147.992 371.931 148.319 372.02 148.674 372.02ZM158.252 369.416H160.856V370.564H158.252V369.416Z" fill="black"/>
<path d="M176.412 373.322L168.978 365.79L169.006 373H167.634V362.57H167.704L175.124 370.214L175.096 362.878H176.454V373.322H176.412ZM178.65 363.788H181.072V373H179.7V365.09H178.65V363.788ZM186.897 373.042C186.132 373.042 185.46 372.855 184.881 372.482C184.303 372.099 183.85 371.558 183.523 370.858C183.197 370.158 183.033 369.323 183.033 368.352C183.033 366.803 183.383 365.636 184.083 364.852C184.783 364.068 185.721 363.681 186.897 363.69C187.653 363.681 188.321 363.867 188.899 364.25C189.487 364.623 189.945 365.16 190.271 365.86C190.598 366.56 190.761 367.391 190.761 368.352C190.761 369.351 190.598 370.2 190.271 370.9C189.945 371.6 189.487 372.132 188.899 372.496C188.321 372.86 187.653 373.042 186.897 373.042ZM186.883 371.74C187.425 371.74 187.877 371.6 188.241 371.32C188.605 371.031 188.881 370.629 189.067 370.116C189.254 369.603 189.352 369.005 189.361 368.324C189.352 367.335 189.137 366.532 188.717 365.916C188.307 365.3 187.695 364.997 186.883 365.006C186.351 364.997 185.903 365.137 185.539 365.426C185.175 365.706 184.9 366.098 184.713 366.602C184.527 367.106 184.433 367.689 184.433 368.352C184.433 369.024 184.527 369.617 184.713 370.13C184.9 370.634 185.175 371.031 185.539 371.32C185.903 371.6 186.351 371.74 186.883 371.74ZM194.696 373.112C194.201 373.112 193.725 373.023 193.268 372.846C192.82 372.659 192.456 372.431 192.176 372.16L192.904 371.096C193.09 371.311 193.338 371.483 193.646 371.614C193.954 371.745 194.266 371.81 194.584 371.81C195.097 371.81 195.517 371.647 195.844 371.32C196.18 370.993 196.348 370.564 196.348 370.032C196.348 369.491 196.194 369.038 195.886 368.674C195.587 368.31 195.139 368.128 194.542 368.128C194.215 368.128 193.912 368.175 193.632 368.268C193.352 368.352 193.062 368.483 192.764 368.66H192.75V363.788H197.16V365.09H193.926V367.106C194.224 367.022 194.537 366.98 194.864 366.98C195.489 366.98 196.016 367.12 196.446 367.4C196.875 367.671 197.197 368.035 197.412 368.492C197.636 368.949 197.748 369.449 197.748 369.99C197.748 370.578 197.612 371.11 197.342 371.586C197.08 372.053 196.721 372.426 196.264 372.706C195.806 372.977 195.284 373.112 194.696 373.112ZM200.918 371.768C200.703 372.263 200.493 372.753 200.288 373.238C200.092 373.723 199.896 374.209 199.7 374.694H198.622C198.808 374.209 198.99 373.723 199.168 373.238C199.354 372.753 199.541 372.263 199.728 371.768H200.918ZM205.806 373.042C205.04 373.042 204.368 372.855 203.79 372.482C203.211 372.099 202.758 371.558 202.432 370.858C202.105 370.158 201.942 369.323 201.942 368.352C201.942 366.803 202.292 365.636 202.992 364.852C203.692 364.068 204.63 363.681 205.806 363.69C206.562 363.681 207.229 363.867 207.808 364.25C208.396 364.623 208.853 365.16 209.18 365.86C209.506 366.56 209.669 367.391 209.669 368.352C209.669 369.351 209.506 370.2 209.18 370.9C208.853 371.6 208.396 372.132 207.808 372.496C207.229 372.86 206.562 373.042 205.806 373.042ZM205.792 371.74C206.333 371.74 206.786 371.6 207.15 371.32C207.514 371.031 207.789 370.629 207.976 370.116C208.162 369.603 208.26 369.005 208.27 368.324C208.26 367.335 208.046 366.532 207.626 365.916C207.215 365.3 206.604 364.997 205.792 365.006C205.26 364.997 204.812 365.137 204.448 365.426C204.084 365.706 203.808 366.098 203.622 366.602C203.435 367.106 203.342 367.689 203.342 368.352C203.342 369.024 203.435 369.617 203.622 370.13C203.808 370.634 204.084 371.031 204.448 371.32C204.812 371.6 205.26 371.74 205.792 371.74ZM214.542 373.042C213.776 373.042 213.104 372.855 212.526 372.482C211.947 372.099 211.494 371.558 211.168 370.858C210.841 370.158 210.678 369.323 210.678 368.352C210.678 366.803 211.028 365.636 211.728 364.852C212.428 364.068 213.366 363.681 214.542 363.69C215.298 363.681 215.965 363.867 216.544 364.25C217.132 364.623 217.589 365.16 217.916 365.86C218.242 366.56 218.406 367.391 218.406 368.352C218.406 369.351 218.242 370.2 217.916 370.9C217.589 371.6 217.132 372.132 216.544 372.496C215.965 372.86 215.298 373.042 214.542 373.042ZM214.528 371.74C215.069 371.74 215.522 371.6 215.886 371.32C216.25 371.031 216.525 370.629 216.712 370.116C216.898 369.603 216.996 369.005 217.006 368.324C216.996 367.335 216.782 366.532 216.362 365.916C215.951 365.3 215.34 364.997 214.528 365.006C213.996 364.997 213.548 365.137 213.184 365.426C212.82 365.706 212.544 366.098 212.358 366.602C212.171 367.106 212.078 367.689 212.078 368.352C212.078 369.024 212.171 369.617 212.358 370.13C212.544 370.634 212.82 371.031 213.184 371.32C213.548 371.6 213.996 371.74 214.528 371.74ZM223.278 373.042C222.513 373.042 221.841 372.855 221.262 372.482C220.683 372.099 220.231 371.558 219.904 370.858C219.577 370.158 219.414 369.323 219.414 368.352C219.414 366.803 219.764 365.636 220.464 364.852C221.164 364.068 222.102 363.681 223.278 363.69C224.034 363.681 224.701 363.867 225.28 364.25C225.868 364.623 226.325 365.16 226.652 365.86C226.979 366.56 227.142 367.391 227.142 368.352C227.142 369.351 226.979 370.2 226.652 370.9C226.325 371.6 225.868 372.132 225.28 372.496C224.701 372.86 224.034 373.042 223.278 373.042ZM223.264 371.74C223.805 371.74 224.258 371.6 224.622 371.32C224.986 371.031 225.261 370.629 225.448 370.116C225.635 369.603 225.733 369.005 225.742 368.324C225.733 367.335 225.518 366.532 225.098 365.916C224.687 365.3 224.076 364.997 223.264 365.006C222.732 364.997 222.284 365.137 221.92 365.426C221.556 365.706 221.281 366.098 221.094 366.602C220.907 367.106 220.814 367.689 220.814 368.352C220.814 369.024 220.907 369.617 221.094 370.13C221.281 370.634 221.556 371.031 221.92 371.32C222.284 371.6 222.732 371.74 223.264 371.74ZM229.97 371.768C229.756 372.263 229.546 372.753 229.34 373.238C229.144 373.723 228.948 374.209 228.752 374.694H227.674C227.861 374.209 228.043 373.723 228.22 373.238C228.407 372.753 228.594 372.263 228.78 371.768H229.97ZM234.858 373.042C234.093 373.042 233.421 372.855 232.842 372.482C232.264 372.099 231.811 371.558 231.484 370.858C231.158 370.158 230.994 369.323 230.994 368.352C230.994 366.803 231.344 365.636 232.044 364.852C232.744 364.068 233.682 363.681 234.858 363.69C235.614 363.681 236.282 363.867 236.86 364.25C237.448 364.623 237.906 365.16 238.232 365.86C238.559 366.56 238.722 367.391 238.722 368.352C238.722 369.351 238.559 370.2 238.232 370.9C237.906 371.6 237.448 372.132 236.86 372.496C236.282 372.86 235.614 373.042 234.858 373.042ZM234.844 371.74C235.386 371.74 235.838 371.6 236.202 371.32C236.566 371.031 236.842 370.629 237.028 370.116C237.215 369.603 237.313 369.005 237.322 368.324C237.313 367.335 237.098 366.532 236.678 365.916C236.268 365.3 235.656 364.997 234.844 365.006C234.312 364.997 233.864 365.137 233.5 365.426C233.136 365.706 232.861 366.098 232.674 366.602C232.488 367.106 232.394 367.689 232.394 368.352C232.394 369.024 232.488 369.617 232.674 370.13C232.861 370.634 233.136 371.031 233.5 371.32C233.864 371.6 234.312 371.74 234.844 371.74ZM243.595 373.042C242.829 373.042 242.157 372.855 241.579 372.482C241 372.099 240.547 371.558 240.221 370.858C239.894 370.158 239.731 369.323 239.731 368.352C239.731 366.803 240.081 365.636 240.781 364.852C241.481 364.068 242.419 363.681 243.595 363.69C244.351 363.681 245.018 363.867 245.597 364.25C246.185 364.623 246.642 365.16 246.969 365.86C247.295 366.56 247.459 367.391 247.459 368.352C247.459 369.351 247.295 370.2 246.969 370.9C246.642 371.6 246.185 372.132 245.597 372.496C245.018 372.86 244.351 373.042 243.595 373.042ZM243.581 371.74C244.122 371.74 244.575 371.6 244.939 371.32C245.303 371.031 245.578 370.629 245.765 370.116C245.951 369.603 246.049 369.005 246.059 368.324C246.049 367.335 245.835 366.532 245.415 365.916C245.004 365.3 244.393 364.997 243.581 365.006C243.049 364.997 242.601 365.137 242.237 365.426C241.873 365.706 241.597 366.098 241.411 366.602C241.224 367.106 241.131 367.689 241.131 368.352C241.131 369.024 241.224 369.617 241.411 370.13C241.597 370.634 241.873 371.031 242.237 371.32C242.601 371.6 243.049 371.74 243.581 371.74ZM252.331 373.042C251.566 373.042 250.894 372.855 250.315 372.482C249.736 372.099 249.284 371.558 248.957 370.858C248.63 370.158 248.467 369.323 248.467 368.352C248.467 366.803 248.817 365.636 249.517 364.852C250.217 364.068 251.155 363.681 252.331 363.69C253.087 363.681 253.754 363.867 254.333 364.25C254.921 364.623 255.378 365.16 255.705 365.86C256.032 366.56 256.195 367.391 256.195 368.352C256.195 369.351 256.032 370.2 255.705 370.9C255.378 371.6 254.921 372.132 254.333 372.496C253.754 372.86 253.087 373.042 252.331 373.042ZM252.317 371.74C252.858 371.74 253.311 371.6 253.675 371.32C254.039 371.031 254.314 370.629 254.501 370.116C254.688 369.603 254.786 369.005 254.795 368.324C254.786 367.335 254.571 366.532 254.151 365.916C253.74 365.3 253.129 364.997 252.317 365.006C251.785 364.997 251.337 365.137 250.973 365.426C250.609 365.706 250.334 366.098 250.147 366.602C249.96 367.106 249.867 367.689 249.867 368.352C249.867 369.024 249.96 369.617 250.147 370.13C250.334 370.634 250.609 371.031 250.973 371.32C251.337 371.6 251.785 371.74 252.317 371.74ZM257.175 372.258C257.175 372.043 257.25 371.866 257.399 371.726C257.558 371.577 257.731 371.502 257.917 371.502C258.085 371.502 258.249 371.577 258.407 371.726C258.566 371.866 258.645 372.043 258.645 372.258C258.645 372.482 258.566 372.664 258.407 372.804C258.249 372.935 258.085 373 257.917 373C257.731 373 257.558 372.935 257.399 372.804C257.25 372.664 257.175 372.482 257.175 372.258ZM263.432 373.042C262.667 373.042 261.995 372.855 261.416 372.482C260.838 372.099 260.385 371.558 260.058 370.858C259.732 370.158 259.568 369.323 259.568 368.352C259.568 366.803 259.918 365.636 260.618 364.852C261.318 364.068 262.256 363.681 263.432 363.69C264.188 363.681 264.856 363.867 265.434 364.25C266.022 364.623 266.48 365.16 266.806 365.86C267.133 366.56 267.296 367.391 267.296 368.352C267.296 369.351 267.133 370.2 266.806 370.9C266.48 371.6 266.022 372.132 265.434 372.496C264.856 372.86 264.188 373.042 263.432 373.042ZM263.418 371.74C263.96 371.74 264.412 371.6 264.776 371.32C265.14 371.031 265.416 370.629 265.602 370.116C265.789 369.603 265.887 369.005 265.896 368.324C265.887 367.335 265.672 366.532 265.252 365.916C264.842 365.3 264.23 364.997 263.418 365.006C262.886 364.997 262.438 365.137 262.074 365.426C261.71 365.706 261.435 366.098 261.248 366.602C261.062 367.106 260.968 367.689 260.968 368.352C260.968 369.024 261.062 369.617 261.248 370.13C261.435 370.634 261.71 371.031 262.074 371.32C262.438 371.6 262.886 371.74 263.418 371.74ZM272.169 373.042C271.403 373.042 270.731 372.855 270.153 372.482C269.574 372.099 269.121 371.558 268.795 370.858C268.468 370.158 268.305 369.323 268.305 368.352C268.305 366.803 268.655 365.636 269.355 364.852C270.055 364.068 270.993 363.681 272.169 363.69C272.925 363.681 273.592 363.867 274.171 364.25C274.759 364.623 275.216 365.16 275.543 365.86C275.869 366.56 276.033 367.391 276.033 368.352C276.033 369.351 275.869 370.2 275.543 370.9C275.216 371.6 274.759 372.132 274.171 372.496C273.592 372.86 272.925 373.042 272.169 373.042ZM272.155 371.74C272.696 371.74 273.149 371.6 273.513 371.32C273.877 371.031 274.152 370.629 274.339 370.116C274.525 369.603 274.623 369.005 274.633 368.324C274.623 367.335 274.409 366.532 273.989 365.916C273.578 365.3 272.967 364.997 272.155 365.006C271.623 364.997 271.175 365.137 270.811 365.426C270.447 365.706 270.171 366.098 269.985 366.602C269.798 367.106 269.705 367.689 269.705 368.352C269.705 369.024 269.798 369.617 269.985 370.13C270.171 370.634 270.447 371.031 270.811 371.32C271.175 371.6 271.623 371.74 272.155 371.74Z" fill="#F56B2A"/>
<path d="M30.714 30.878H37.434V32.18H34.718V41H33.36V32.18H30.714V30.878ZM40.2005 41.14C39.6499 41.14 39.1505 41.0233 38.7025 40.79C38.2639 40.5567 37.9139 40.216 37.6525 39.768C37.4005 39.3107 37.2745 38.7553 37.2745 38.102C37.2745 37.4487 37.4052 36.8887 37.6665 36.422C37.9372 35.9553 38.2965 35.596 38.7445 35.344C39.2019 35.092 39.7012 34.966 40.2425 34.966C40.7652 34.966 41.2085 35.078 41.5725 35.302C41.9365 35.526 42.2212 35.7967 42.4265 36.114L42.5245 35.204H43.7285V41H42.4265V40.048C42.3145 40.1973 42.1512 40.356 41.9365 40.524C41.7312 40.692 41.4792 40.8367 41.1805 40.958C40.8912 41.0793 40.5645 41.14 40.2005 41.14ZM40.5505 40.062C41.0265 40.062 41.4325 39.9313 41.7685 39.67C42.1045 39.3993 42.3239 39.0353 42.4265 38.578V37.43C42.3145 37.0287 42.0812 36.6973 41.7265 36.436C41.3719 36.1747 40.9659 36.044 40.5085 36.044C40.1539 36.044 39.8319 36.128 39.5425 36.296C39.2532 36.464 39.0199 36.6973 38.8425 36.996C38.6745 37.2947 38.5905 37.64 38.5905 38.032C38.5905 38.4147 38.6792 38.76 38.8565 39.068C39.0339 39.3667 39.2719 39.6093 39.5705 39.796C39.8692 39.9733 40.1959 40.062 40.5505 40.062ZM47.1573 35.204L47.2553 36.562C47.414 36.2353 47.6333 35.9553 47.9133 35.722C48.1933 35.4793 48.4827 35.2973 48.7813 35.176C49.0893 35.0453 49.3553 34.9753 49.5793 34.966L49.5233 36.268C49.0847 36.2493 48.6973 36.338 48.3613 36.534C48.0253 36.7207 47.764 36.9773 47.5773 37.304C47.3907 37.6307 47.2973 37.9807 47.2973 38.354V41H45.9953V35.204H47.1573ZM53.8129 43.87C53.1689 43.87 52.6322 43.758 52.2029 43.534C51.7736 43.3193 51.3769 43.044 51.0129 42.708L51.7829 41.812C52.0816 42.1107 52.3896 42.3347 52.7069 42.484C53.0242 42.6427 53.3836 42.722 53.7849 42.722C54.4382 42.722 54.9376 42.5633 55.2829 42.246C55.6282 41.938 55.8056 41.5273 55.8149 41.014V39.95C55.6189 40.2953 55.3156 40.58 54.9049 40.804C54.4942 41.028 54.0089 41.14 53.4489 41.14C52.9076 41.14 52.4129 41.0047 51.9649 40.734C51.5262 40.4633 51.1716 40.0993 50.9009 39.642C50.6396 39.1753 50.5089 38.6527 50.5089 38.074C50.5089 37.4673 50.6489 36.9307 50.9289 36.464C51.2089 35.9973 51.5776 35.6333 52.0349 35.372C52.4922 35.1013 52.9916 34.966 53.5329 34.966C54.0369 34.966 54.4942 35.064 54.9049 35.26C55.3156 35.456 55.6236 35.708 55.8289 36.016L55.9409 35.204H57.1309V41.042C57.1309 41.5647 56.9956 42.0407 56.7249 42.47C56.4542 42.8993 56.0716 43.24 55.5769 43.492C55.0822 43.744 54.4942 43.87 53.8129 43.87ZM51.8249 38.032C51.8249 38.4147 51.9136 38.76 52.0909 39.068C52.2682 39.3667 52.5062 39.6093 52.8049 39.796C53.1129 39.9733 53.4536 40.062 53.8269 40.062C54.3309 40.062 54.7602 39.9267 55.1149 39.656C55.4789 39.376 55.7122 39.0213 55.8149 38.592V37.444C55.6936 37.0333 55.4509 36.6973 55.0869 36.436C54.7229 36.1747 54.3029 36.044 53.8269 36.044C53.4442 36.044 53.0989 36.128 52.7909 36.296C52.4922 36.464 52.2542 36.6973 52.0769 36.996C51.9089 37.2947 51.8249 37.64 51.8249 38.032ZM62.0818 41.14C61.4284 41.14 60.8591 41.0093 60.3738 40.748C59.8978 40.4773 59.5291 40.1087 59.2678 39.642C59.0158 39.1753 58.8898 38.648 58.8898 38.06C58.8898 37.4907 59.0298 36.9727 59.3098 36.506C59.5991 36.03 59.9864 35.6567 60.4718 35.386C60.9664 35.106 61.5124 34.966 62.1098 34.966C62.8751 34.966 63.5098 35.19 64.0138 35.638C64.5178 36.086 64.8631 36.702 65.0498 37.486L60.4578 39.096C60.6164 39.3853 60.8404 39.614 61.1298 39.782C61.4191 39.9407 61.7458 40.02 62.1098 40.02C62.3711 40.02 62.6184 39.9733 62.8518 39.88C63.0851 39.7867 63.3091 39.6653 63.5238 39.516L64.1258 40.482C63.8271 40.678 63.4958 40.8367 63.1318 40.958C62.7771 41.0793 62.4271 41.14 62.0818 41.14ZM60.1778 37.99C60.1684 38.102 60.1731 38.2093 60.1918 38.312L63.5658 37.066C63.4351 36.786 63.2438 36.5387 62.9918 36.324C62.7491 36.1093 62.4224 36.002 62.0118 36.002C61.4798 36.002 61.0411 36.1887 60.6958 36.562C60.3504 36.9353 60.1778 37.4113 60.1778 37.99ZM67.2272 32.656H68.5432V35.218H70.1252V36.254H68.5432V41H67.2272V36.254H66.1632V35.218H67.2272V32.656ZM79.1798 30.878C80.2718 30.878 81.1305 31.1533 81.7558 31.704C82.3811 32.2547 82.6938 33.0247 82.6938 34.014C82.6938 34.4153 82.6331 34.812 82.5118 35.204C82.3905 35.5867 82.1945 35.9367 81.9238 36.254C81.6625 36.562 81.3171 36.814 80.8878 37.01C80.4585 37.1967 79.9358 37.29 79.3198 37.29H77.8218V41H76.4638V30.878H79.1798ZM79.3198 35.96C79.7118 35.96 80.0385 35.8993 80.2998 35.778C80.5611 35.6473 80.7665 35.4793 80.9158 35.274C81.0745 35.0687 81.1865 34.8587 81.2518 34.644C81.3171 34.42 81.3498 34.2193 81.3498 34.042C81.3498 33.7713 81.2845 33.4913 81.1538 33.202C81.0325 32.9127 80.8271 32.67 80.5378 32.474C80.2578 32.278 79.8751 32.18 79.3898 32.18H77.8218V35.96H79.3198ZM83.964 38.046C83.964 37.4673 84.0993 36.9447 84.37 36.478C84.65 36.0113 85.0327 35.6427 85.518 35.372C86.0033 35.1013 86.5587 34.966 87.184 34.966C87.8093 34.966 88.36 35.1013 88.836 35.372C89.312 35.6427 89.6807 36.0113 89.942 36.478C90.2127 36.9447 90.348 37.4673 90.348 38.046C90.348 38.6247 90.2127 39.1473 89.942 39.614C89.6807 40.0807 89.3073 40.454 88.822 40.734C88.346 41.0047 87.7907 41.14 87.156 41.14C86.54 41.14 85.9893 41.014 85.504 40.762C85.028 40.51 84.65 40.1507 84.37 39.684C84.0993 39.2173 83.964 38.6713 83.964 38.046ZM85.28 38.06C85.28 38.4333 85.3593 38.774 85.518 39.082C85.686 39.3807 85.91 39.6187 86.19 39.796C86.47 39.9733 86.7873 40.062 87.142 40.062C87.506 40.062 87.828 39.9733 88.108 39.796C88.388 39.6187 88.6073 39.3807 88.766 39.082C88.934 38.774 89.018 38.4333 89.018 38.06C89.018 37.6867 88.934 37.3507 88.766 37.052C88.6073 36.744 88.388 36.5013 88.108 36.324C87.828 36.1373 87.506 36.044 87.142 36.044C86.7873 36.044 86.4653 36.1373 86.176 36.324C85.896 36.5107 85.6767 36.758 85.518 37.066C85.3593 37.3647 85.28 37.696 85.28 38.06ZM93.7349 41.112C93.3149 41.112 92.9089 41.042 92.5169 40.902C92.1342 40.7527 91.8169 40.5333 91.5649 40.244L92.1249 39.488C92.3582 39.7213 92.6056 39.8987 92.8669 40.02C93.1282 40.132 93.3802 40.188 93.6229 40.188C93.9029 40.188 94.1456 40.132 94.3509 40.02C94.5656 39.908 94.6729 39.7167 94.6729 39.446C94.6729 39.2407 94.6029 39.0773 94.4629 38.956C94.3322 38.8347 94.1596 38.7413 93.9449 38.676C93.7396 38.6013 93.5249 38.5267 93.3009 38.452C92.3116 38.1347 91.8169 37.57 91.8169 36.758C91.8169 36.4593 91.8916 36.1747 92.0409 35.904C92.1996 35.6333 92.4282 35.414 92.7269 35.246C93.0349 35.078 93.4129 34.994 93.8609 34.994C94.2622 34.994 94.6216 35.0453 94.9389 35.148C95.2562 35.2507 95.5549 35.414 95.8349 35.638L95.3169 36.436C95.1489 36.268 94.9482 36.142 94.7149 36.058C94.4909 35.9647 94.2856 35.9133 94.0989 35.904C93.8469 35.904 93.6229 35.9647 93.4269 36.086C93.2402 36.2073 93.1469 36.3753 93.1469 36.59C93.1376 36.786 93.1982 36.9447 93.3289 37.066C93.4596 37.178 93.6276 37.2713 93.8329 37.346C94.0476 37.4207 94.2622 37.4907 94.4769 37.556C94.8969 37.696 95.2516 37.8873 95.5409 38.13C95.8396 38.3727 95.9889 38.7273 95.9889 39.194C95.9889 39.7167 95.8022 40.1693 95.4289 40.552C95.0556 40.9253 94.4909 41.112 93.7349 41.112ZM97.8117 35.204H99.1137V41H97.8117V35.204ZM97.7137 33.118C97.7137 32.9033 97.7931 32.7307 97.9517 32.6C98.1197 32.46 98.3017 32.39 98.4977 32.39C98.6937 32.39 98.8711 32.46 99.0297 32.6C99.1884 32.7307 99.2677 32.9033 99.2677 33.118C99.2677 33.3327 99.1884 33.51 99.0297 33.65C98.8711 33.7807 98.6937 33.846 98.4977 33.846C98.3017 33.846 98.1197 33.7807 97.9517 33.65C97.7931 33.51 97.7137 33.3327 97.7137 33.118ZM101.94 32.656H103.256V35.218H104.838V36.254H103.256V41H101.94V36.254H100.876V35.218H101.94V32.656ZM106.425 35.204H107.727V41H106.425V35.204ZM106.327 33.118C106.327 32.9033 106.406 32.7307 106.565 32.6C106.733 32.46 106.915 32.39 107.111 32.39C107.307 32.39 107.484 32.46 107.643 32.6C107.802 32.7307 107.881 32.9033 107.881 33.118C107.881 33.3327 107.802 33.51 107.643 33.65C107.484 33.7807 107.307 33.846 107.111 33.846C106.915 33.846 106.733 33.7807 106.565 33.65C106.406 33.51 106.327 33.3327 106.327 33.118ZM109.489 38.046C109.489 37.4673 109.625 36.9447 109.895 36.478C110.175 36.0113 110.558 35.6427 111.043 35.372C111.529 35.1013 112.084 34.966 112.709 34.966C113.335 34.966 113.885 35.1013 114.361 35.372C114.837 35.6427 115.206 36.0113 115.467 36.478C115.738 36.9447 115.873 37.4673 115.873 38.046C115.873 38.6247 115.738 39.1473 115.467 39.614C115.206 40.0807 114.833 40.454 114.347 40.734C113.871 41.0047 113.316 41.14 112.681 41.14C112.065 41.14 111.515 41.014 111.029 40.762C110.553 40.51 110.175 40.1507 109.895 39.684C109.625 39.2173 109.489 38.6713 109.489 38.046ZM110.805 38.06C110.805 38.4333 110.885 38.774 111.043 39.082C111.211 39.3807 111.435 39.6187 111.715 39.796C111.995 39.9733 112.313 40.062 112.667 40.062C113.031 40.062 113.353 39.9733 113.633 39.796C113.913 39.6187 114.133 39.3807 114.291 39.082C114.459 38.774 114.543 38.4333 114.543 38.06C114.543 37.6867 114.459 37.3507 114.291 37.052C114.133 36.744 113.913 36.5013 113.633 36.324C113.353 36.1373 113.031 36.044 112.667 36.044C112.313 36.044 111.991 36.1373 111.701 36.324C111.421 36.5107 111.202 36.758 111.043 37.066C110.885 37.3647 110.805 37.696 110.805 38.06ZM118.798 35.204L118.882 36.324C119.078 35.9133 119.382 35.5867 119.792 35.344C120.203 35.1013 120.679 34.98 121.22 34.98C121.762 34.98 122.205 35.1433 122.55 35.47C122.905 35.7873 123.092 36.2027 123.11 36.716V41H121.794V37.164C121.776 36.856 121.678 36.604 121.5 36.408C121.332 36.212 121.066 36.1093 120.702 36.1C120.198 36.1 119.774 36.3053 119.428 36.716C119.092 37.1173 118.924 37.64 118.924 38.284V41H117.622V35.204H118.798ZM130.266 41V36.366H129.272V35.19H130.266V32.754C130.266 31.914 130.458 31.27 130.84 30.822C131.223 30.374 131.783 30.15 132.52 30.15C132.707 30.15 132.917 30.178 133.15 30.234C133.393 30.29 133.608 30.3787 133.794 30.5L133.234 31.452C133.15 31.368 133.057 31.312 132.954 31.284C132.852 31.2467 132.749 31.228 132.646 31.228C132.31 31.228 132.044 31.3447 131.848 31.578C131.662 31.8113 131.568 32.208 131.568 32.768V35.19H133.416V36.366H131.568V41H130.266ZM134.29 38.046C134.29 37.4673 134.425 36.9447 134.696 36.478C134.976 36.0113 135.359 35.6427 135.844 35.372C136.329 35.1013 136.885 34.966 137.51 34.966C138.135 34.966 138.686 35.1013 139.162 35.372C139.638 35.6427 140.007 36.0113 140.268 36.478C140.539 36.9447 140.674 37.4673 140.674 38.046C140.674 38.6247 140.539 39.1473 140.268 39.614C140.007 40.0807 139.633 40.454 139.148 40.734C138.672 41.0047 138.117 41.14 137.482 41.14C136.866 41.14 136.315 41.014 135.83 40.762C135.354 40.51 134.976 40.1507 134.696 39.684C134.425 39.2173 134.29 38.6713 134.29 38.046ZM135.606 38.06C135.606 38.4333 135.685 38.774 135.844 39.082C136.012 39.3807 136.236 39.6187 136.516 39.796C136.796 39.9733 137.113 40.062 137.468 40.062C137.832 40.062 138.154 39.9733 138.434 39.796C138.714 39.6187 138.933 39.3807 139.092 39.082C139.26 38.774 139.344 38.4333 139.344 38.06C139.344 37.6867 139.26 37.3507 139.092 37.052C138.933 36.744 138.714 36.5013 138.434 36.324C138.154 36.1373 137.832 36.044 137.468 36.044C137.113 36.044 136.791 36.1373 136.502 36.324C136.222 36.5107 136.003 36.758 135.844 37.066C135.685 37.3647 135.606 37.696 135.606 38.06ZM143.585 35.204L143.683 36.562C143.842 36.2353 144.061 35.9553 144.341 35.722C144.621 35.4793 144.91 35.2973 145.209 35.176C145.517 35.0453 145.783 34.9753 146.007 34.966L145.951 36.268C145.512 36.2493 145.125 36.338 144.789 36.534C144.453 36.7207 144.192 36.9773 144.005 37.304C143.818 37.6307 143.725 37.9807 143.725 38.354V41H142.423V35.204H143.585ZM151.43 41L155.854 30.458H155.938L160.362 41H158.794L157.744 38.34H153.852L152.774 41H151.43ZM154.328 37.164H157.282L155.84 33.482L154.328 37.164ZM165.363 41.14C164.943 41.14 164.537 41.0513 164.145 40.874C163.762 40.6873 163.459 40.44 163.235 40.132V43.786H161.933V35.106H163.067L163.179 36.086C163.459 35.7593 163.804 35.4933 164.215 35.288C164.635 35.0733 165.097 34.966 165.601 34.966C166.151 34.966 166.641 35.0967 167.071 35.358C167.509 35.6193 167.855 35.9833 168.107 36.45C168.359 36.9167 168.485 37.4627 168.485 38.088C168.485 38.7133 168.345 39.2547 168.065 39.712C167.794 40.1693 167.421 40.524 166.945 40.776C166.478 41.0187 165.951 41.14 165.363 41.14ZM165.111 40.09C165.475 40.09 165.811 40.006 166.119 39.838C166.436 39.6607 166.688 39.4227 166.875 39.124C167.061 38.8253 167.155 38.4847 167.155 38.102C167.155 37.71 167.066 37.3647 166.889 37.066C166.711 36.758 166.473 36.52 166.175 36.352C165.885 36.1747 165.559 36.086 165.195 36.086C164.691 36.086 164.266 36.226 163.921 36.506C163.575 36.786 163.347 37.15 163.235 37.598V38.578C163.309 39.0167 163.519 39.3807 163.865 39.67C164.219 39.95 164.635 40.09 165.111 40.09ZM171.394 35.204L171.492 36.562C171.65 36.2353 171.87 35.9553 172.15 35.722C172.43 35.4793 172.719 35.2973 173.018 35.176C173.326 35.0453 173.592 34.9753 173.816 34.966L173.76 36.268C173.321 36.2493 172.934 36.338 172.598 36.534C172.262 36.7207 172 36.9773 171.814 37.304C171.627 37.6307 171.534 37.9807 171.534 38.354V41H170.232V35.204H171.394ZM175.495 35.204H176.797V41H175.495V35.204ZM175.397 33.118C175.397 32.9033 175.477 32.7307 175.635 32.6C175.803 32.46 175.985 32.39 176.181 32.39C176.377 32.39 176.555 32.46 176.713 32.6C176.872 32.7307 176.951 32.9033 176.951 33.118C176.951 33.3327 176.872 33.51 176.713 33.65C176.555 33.7807 176.377 33.846 176.181 33.846C175.985 33.846 175.803 33.7807 175.635 33.65C175.477 33.51 175.397 33.3327 175.397 33.118ZM179.064 30.15H180.366V41H179.064V30.15ZM186.684 41C187.262 40.412 187.822 39.8427 188.364 39.292C188.914 38.7413 189.404 38.2047 189.834 37.682C190.263 37.1593 190.604 36.6507 190.856 36.156C191.117 35.6613 191.248 35.1853 191.248 34.728C191.248 34.3173 191.164 33.986 190.996 33.734C190.828 33.4727 190.608 33.2813 190.338 33.16C190.076 33.0387 189.801 32.978 189.512 32.978C189.101 32.978 188.77 33.062 188.518 33.23C188.275 33.398 188.098 33.6033 187.986 33.846C187.874 34.0887 187.818 34.322 187.818 34.546C187.818 34.8633 187.864 35.1433 187.958 35.386C188.051 35.6287 188.186 35.8387 188.364 36.016L187.538 36.772C187.314 36.6413 187.122 36.45 186.964 36.198C186.814 35.9367 186.698 35.6613 186.614 35.372C186.539 35.0827 186.502 34.8167 186.502 34.574C186.502 34.07 186.623 33.5987 186.866 33.16C187.118 32.7213 187.482 32.3667 187.958 32.096C188.443 31.816 189.036 31.676 189.736 31.676C190.314 31.676 190.823 31.8113 191.262 32.082C191.7 32.3527 192.041 32.712 192.284 33.16C192.526 33.5987 192.648 34.084 192.648 34.616C192.648 35.2133 192.498 35.7967 192.2 36.366C191.901 36.9353 191.518 37.4953 191.052 38.046C190.594 38.5967 190.123 39.1427 189.638 39.684H192.956V41H186.684ZM197.925 41.042C197.159 41.042 196.487 40.8553 195.909 40.482C195.33 40.0993 194.877 39.558 194.551 38.858C194.224 38.158 194.061 37.3227 194.061 36.352C194.061 34.8027 194.411 33.636 195.111 32.852C195.811 32.068 196.749 31.6807 197.925 31.69C198.681 31.6807 199.348 31.8673 199.927 32.25C200.515 32.6233 200.972 33.16 201.299 33.86C201.625 34.56 201.789 35.3907 201.789 36.352C201.789 37.3507 201.625 38.2 201.299 38.9C200.972 39.6 200.515 40.132 199.927 40.496C199.348 40.86 198.681 41.042 197.925 41.042ZM197.911 39.74C198.452 39.74 198.905 39.6 199.269 39.32C199.633 39.0307 199.908 38.6293 200.095 38.116C200.281 37.6027 200.379 37.0053 200.389 36.324C200.379 35.3347 200.165 34.532 199.745 33.916C199.334 33.3 198.723 32.9967 197.911 33.006C197.379 32.9967 196.931 33.1367 196.567 33.426C196.203 33.706 195.927 34.098 195.741 34.602C195.554 35.106 195.461 35.6893 195.461 36.352C195.461 37.024 195.554 37.6167 195.741 38.13C195.927 38.634 196.203 39.0307 196.567 39.32C196.931 39.6 197.379 39.74 197.911 39.74ZM203.049 41C203.628 40.412 204.188 39.8427 204.729 39.292C205.28 38.7413 205.77 38.2047 206.199 37.682C206.628 37.1593 206.969 36.6507 207.221 36.156C207.482 35.6613 207.613 35.1853 207.613 34.728C207.613 34.3173 207.529 33.986 207.361 33.734C207.193 33.4727 206.974 33.2813 206.703 33.16C206.442 33.0387 206.166 32.978 205.877 32.978C205.466 32.978 205.135 33.062 204.883 33.23C204.64 33.398 204.463 33.6033 204.351 33.846C204.239 34.0887 204.183 34.322 204.183 34.546C204.183 34.8633 204.23 35.1433 204.323 35.386C204.416 35.6287 204.552 35.8387 204.729 36.016L203.903 36.772C203.679 36.6413 203.488 36.45 203.329 36.198C203.18 35.9367 203.063 35.6613 202.979 35.372C202.904 35.0827 202.867 34.8167 202.867 34.574C202.867 34.07 202.988 33.5987 203.231 33.16C203.483 32.7213 203.847 32.3667 204.323 32.096C204.808 31.816 205.401 31.676 206.101 31.676C206.68 31.676 207.188 31.8113 207.627 32.082C208.066 32.3527 208.406 32.712 208.649 33.16C208.892 33.5987 209.013 34.084 209.013 34.616C209.013 35.2133 208.864 35.7967 208.565 36.366C208.266 36.9353 207.884 37.4953 207.417 38.046C206.96 38.5967 206.488 39.1427 206.003 39.684H209.321V41H203.049ZM210.664 31.788H213.086V41H211.714V33.09H210.664V31.788Z" fill="#333333"/>
<line x1="30" y1="48.5" x2="215" y2="48.5" stroke="black"/>
<path fill-rule="evenodd" clip-rule="evenodd" d="M248.182 89.0764C302.534 86.9821 347.866 128.243 351.978 180.829C352.305 185.026 349.002 188.627 344.77 188.627C340.98 188.627 337.862 185.712 337.568 181.954C334.017 136.548 294.552 101.009 247.48 103.504C205.773 105.712 168.798 142.497 166.577 183.99C164.071 230.821 199.792 270.084 245.432 273.616C249.21 273.909 252.141 277.011 252.141 280.781C252.141 285.086 248.614 288.286 244.301 287.952C191.445 283.861 149.972 238.764 152.077 184.691C154.089 132.985 196.209 91.0802 248.182 89.0764Z" fill="#FFE5D3"/>
<path fill-rule="evenodd" clip-rule="evenodd" d="M255.818 287.9C201.466 289.994 156.134 248.733 152.022 196.147C151.695 191.95 154.998 188.349 159.23 188.349C163.02 188.349 166.138 191.264 166.432 195.022C169.983 240.428 209.448 275.967 256.52 273.472C298.227 271.264 335.202 234.479 337.423 192.986C339.929 146.155 304.208 106.892 258.568 103.36C254.79 103.067 251.859 99.9654 251.859 96.195C251.859 91.8905 255.386 88.6901 259.699 89.0239C312.555 93.1148 354.028 138.212 351.923 192.285C349.911 243.991 307.791 285.896 255.818 287.9Z" fill="#F56B2A"/>
<path fill-rule="evenodd" clip-rule="evenodd" d="M252 232.59C276.483 232.59 296.33 212.844 296.33 188.487C296.33 164.13 276.483 144.385 252 144.385C227.517 144.385 207.67 164.13 207.67 188.487C207.67 212.844 227.517 232.59 252 232.59Z" fill="#F56B2A"/>
<path d="M240.073 195.192C239.017 195.192 238.057 194.944 237.193 194.448C236.329 193.936 235.649 193.216 235.153 192.288C234.657 191.344 234.409 190.224 234.409 188.928C234.409 187.904 234.609 186.928 235.009 186C235.409 185.056 235.953 184.176 236.641 183.36C237.345 182.528 238.129 181.76 238.993 181.056C239.857 180.336 240.753 179.672 241.681 179.064L243.241 180.768C241.737 181.52 240.513 182.376 239.569 183.336C238.641 184.28 237.969 185.216 237.553 186.144C237.953 185.728 238.425 185.416 238.969 185.208C239.513 184.984 240.137 184.872 240.841 184.872C241.657 184.872 242.425 185.096 243.145 185.544C243.881 185.976 244.473 186.568 244.921 187.32C245.369 188.072 245.593 188.936 245.593 189.912C245.593 190.984 245.329 191.92 244.801 192.72C244.289 193.504 243.609 194.112 242.761 194.544C241.929 194.976 241.033 195.192 240.073 195.192ZM239.977 193.104C240.873 193.104 241.625 192.816 242.233 192.24C242.857 191.648 243.169 190.872 243.169 189.912C243.169 188.984 242.857 188.24 242.233 187.68C241.625 187.12 240.873 186.84 239.977 186.84C239.385 186.84 238.849 186.968 238.369 187.224C237.889 187.48 237.505 187.816 237.217 188.232C236.929 188.648 236.785 189.104 236.785 189.6V190.032C236.785 190.576 236.921 191.088 237.193 191.568C237.481 192.032 237.865 192.408 238.345 192.696C238.841 192.968 239.385 193.104 239.977 193.104ZM246.864 191.184V191.16L256.512 179.016H256.536V189.384H258.6V191.184H256.536V195H254.208V191.184H246.864ZM254.208 189.384V184.464L250.392 189.384H254.208ZM275.115 180.36L265.107 195.048L262.875 195L272.859 180.36H275.115ZM264.363 188.592C263.259 188.592 262.411 188.216 261.819 187.464C261.227 186.696 260.931 185.704 260.931 184.488C260.931 183.288 261.227 182.304 261.819 181.536C262.411 180.768 263.259 180.384 264.363 180.384C265.451 180.384 266.291 180.768 266.883 181.536C267.475 182.304 267.771 183.288 267.771 184.488C267.771 185.704 267.475 186.696 266.883 187.464C266.291 188.216 265.451 188.592 264.363 188.592ZM262.923 184.488C262.923 185.256 263.043 185.864 263.283 186.312C263.523 186.76 263.883 186.984 264.363 186.984C264.827 186.984 265.179 186.76 265.419 186.312C265.659 185.864 265.779 185.256 265.779 184.488C265.779 182.84 265.307 182.016 264.363 182.016C263.403 182.016 262.923 182.84 262.923 184.488ZM273.387 195.384C272.283 195.384 271.435 195.008 270.843 194.256C270.267 193.488 269.979 192.496 269.979 191.28C269.979 190.08 270.267 189.096 270.843 188.328C271.435 187.56 272.283 187.176 273.387 187.176C274.475 187.176 275.315 187.56 275.907 188.328C276.499 189.096 276.795 190.08 276.795 191.28C276.795 192.496 276.491 193.488 275.883 194.256C275.291 195.008 274.459 195.384 273.387 195.384ZM271.947 191.28C271.947 192.048 272.067 192.656 272.307 193.104C272.547 193.552 272.907 193.776 273.387 193.776C273.851 193.776 274.203 193.552 274.443 193.104C274.683 192.656 274.803 192.048 274.803 191.28C274.803 189.632 274.331 188.808 273.387 188.808C272.427 188.808 271.947 189.632 271.947 191.28Z" fill="white"/>
</svg>
