<svg width="24" height="24" viewBox="0 0 24 24" fill="none" xmlns="http://www.w3.org/2000/svg">
<path d="M21.4299 23.3244C21.4299 23.6975 21.1275 23.9999 20.7543 23.9999H15.8104C15.8062 24 15.802 24 15.7978 24C15.7935 24 15.7894 24 15.7852 23.9999H9.90778C9.89938 24.0001 9.8909 24.0001 9.88249 23.9999H4.00532C3.99692 24.0001 3.98844 24.0001 3.98003 23.9999H0.698424C0.325303 23.9999 0.0228882 23.6975 0.0228882 23.3244C0.0228882 22.9513 0.325303 22.6488 0.698424 22.6488H3.3171V5.1442C3.3171 4.77108 3.61952 4.46867 3.99264 4.46867C4.36576 4.46867 4.66818 4.77108 4.66818 5.1442V22.6488H9.21956V11.0501C9.21956 10.677 9.52198 10.3746 9.8951 10.3746C10.2682 10.3746 10.5706 10.677 10.5706 11.0501V22.6488H15.1222V15.7749C15.1222 15.4018 15.4247 15.0994 15.7978 15.0994C16.1709 15.0994 16.4733 15.4018 16.4733 15.7749V22.6488H20.7543C21.1275 22.6488 21.4299 22.9513 21.4299 23.3244ZM23.3016 12.5396C22.9285 12.5396 22.6261 12.842 22.6261 13.2151V15.0596L7.76423 0.197852C7.62875 0.0623691 7.44981 -0.00390852 7.27244 0.000144702H0.698424C0.325303 0.000144702 0.0228882 0.30256 0.0228882 0.675681C0.0228882 1.0488 0.325303 1.35122 0.698424 1.35122H7.00688L21.6708 16.015H19.8262C19.4531 16.015 19.1507 16.3174 19.1507 16.6905C19.1507 17.0637 19.4531 17.3661 19.8262 17.3661H23.3016C23.5206 17.3661 23.7153 17.2619 23.8387 17.1004C23.8664 17.0642 23.89 17.0257 23.9093 16.9858C23.9528 16.8967 23.9771 16.7965 23.9771 16.6905V16.6905V13.2151C23.9772 12.842 23.6747 12.5396 23.3016 12.5396Z" fill="#333333"/>
</svg>
