<svg width="24" height="24" viewBox="0 0 24 24" fill="none" xmlns="http://www.w3.org/2000/svg">
<path d="M12 24C8.8174 24 5.76515 22.7357 3.51472 20.4853C1.26428 18.2348 0 15.1826 0 12C0 8.8174 1.26428 5.76515 3.51472 3.51472C5.76515 1.26428 8.8174 0 12 0C12.1326 0 12.2598 0.0526784 12.3536 0.146447C12.4473 0.240215 12.5 0.367392 12.5 0.5V11.5H23.5C23.6326 11.5 23.7598 11.5527 23.8536 11.6464C23.9473 11.7402 24 11.8674 24 12C24 15.1826 22.7357 18.2348 20.4853 20.4853C18.2348 22.7357 15.1826 24 12 24Z" fill="#333333"/>
<path d="M23.5 10.5H13.5V0.5C13.5 0.367392 13.5527 0.240215 13.6464 0.146447C13.7402 0.0526784 13.8674 0 14 0C15.3132 0 16.6136 0.258658 17.8268 0.761205C19.0401 1.26375 20.1425 2.00035 21.0711 2.92893C21.9997 3.85752 22.7362 4.95991 23.2388 6.17317C23.7413 7.38642 24 8.68678 24 10C24 10.1326 23.9473 10.2598 23.8536 10.3536C23.7598 10.4473 23.6326 10.5 23.5 10.5Z" fill="#333333"/>
</svg>
