<svg width="24" height="24" viewBox="0 0 24 24" fill="none" xmlns="http://www.w3.org/2000/svg">
<g clip-path="url(#clip0_330_26)">
<path d="M13.9126 14.7237C17.9398 14.7237 21.2161 11.4212 21.2161 7.36188C21.2161 3.30258 17.9398 0 13.9126 0C9.88548 0 6.60913 3.30253 6.60913 7.36183C6.60913 11.4211 9.88548 14.7237 13.9126 14.7237ZM11.5658 9.65912C11.7782 9.33438 12.2138 9.24321 12.5385 9.45576C13.0118 9.76528 13.1903 9.79381 13.8147 9.78945C14.4242 9.78542 14.7778 9.33114 14.8485 8.91074C14.8828 8.70625 14.896 8.20691 14.2772 7.98813C13.5513 7.7315 12.8084 7.43819 12.2915 7.03283C11.7747 6.62746 11.5381 5.92766 11.674 5.20663C11.8213 4.42499 12.3665 3.80277 13.097 3.58277C13.1036 3.5808 13.1101 3.57921 13.1167 3.57724V3.31087C13.1167 2.92279 13.4313 2.60817 13.8194 2.60817C14.2074 2.60817 14.5221 2.92279 14.5221 3.31087V3.53297C14.9994 3.64691 15.3327 3.86526 15.468 3.9664C15.7788 4.19881 15.8425 4.63913 15.6101 4.95C15.3777 5.26088 14.9374 5.3245 14.6265 5.09204C14.4825 4.98439 14.0846 4.75297 13.5023 4.92841C13.1622 5.03091 13.0739 5.36652 13.055 5.46692C13.0179 5.66419 13.0596 5.84909 13.1589 5.92695C13.5171 6.20794 14.162 6.45675 14.7455 6.66302C15.8216 7.04337 16.4199 8.04027 16.2344 9.14371C16.1434 9.68512 15.871 10.1874 15.4674 10.5582C15.1926 10.8108 14.8726 10.9909 14.5221 11.0937V11.4128C14.5221 11.8009 14.2074 12.1155 13.8194 12.1155C13.4313 12.1155 13.1167 11.8009 13.1167 11.4128V11.1638C12.6623 11.1087 12.2809 10.9666 11.7691 10.6319C11.4444 10.4194 11.3533 9.98387 11.5658 9.65912Z" fill="#333333"/>
<path d="M2.66349 17.0849H1.06123C0.673146 17.0849 0.358521 17.3995 0.358521 17.7876V23.2963C0.358521 23.6844 0.673146 23.999 1.06123 23.999H2.66354V17.0849H2.66349Z" fill="#333333"/>
<path d="M23.4354 17.0358C22.1183 15.7187 19.9752 15.7186 18.6582 17.0358L16.5532 19.1408L15.6904 20.0036C15.3417 20.3523 14.8687 20.5482 14.3756 20.5482H10.1803C9.80137 20.5482 9.47532 20.257 9.45747 19.8785C9.43845 19.4744 9.76043 19.1408 10.1604 19.1408H14.4247C15.2821 19.1408 16.0257 18.5304 16.1731 17.6858C16.207 17.4918 16.2246 17.2924 16.2246 17.0889C16.2247 16.7001 15.9097 16.3846 15.5209 16.3846H13.1843C12.4207 16.3846 11.6874 16.0382 10.911 15.6714C10.0967 15.2868 9.25467 14.889 8.27008 14.8235C7.40894 14.7661 6.54583 14.8604 5.70459 15.1033C4.80386 15.3634 4.15639 16.1637 4.07787 17.0876C4.07488 17.0873 4.07183 17.0873 4.06879 17.0871V23.9966L16.1753 24C17.0077 24 17.7903 23.6758 18.379 23.0871L23.4352 18.0309C23.7102 17.7562 23.7102 17.3106 23.4354 17.0358Z" fill="#333333"/>
</g>
<defs>
<clipPath id="clip0_330_26">
<rect width="24" height="24" fill="white"/>
</clipPath>
</defs>
</svg>
