<svg width="24" height="24" viewBox="0 0 24 24" fill="none" xmlns="http://www.w3.org/2000/svg">
<g clip-path="url(#clip0_330_455)">
<path d="M1.875 17.625H4.125C4.32391 17.625 4.51468 17.704 4.65533 17.8447C4.79598 17.9853 4.875 18.1761 4.875 18.375V23.625H1.125V18.375C1.125 18.1761 1.20402 17.9853 1.34467 17.8447C1.48532 17.704 1.67609 17.625 1.875 17.625Z" fill="#333333"/>
<path d="M7.875 12.375H10.125C10.3239 12.375 10.5147 12.454 10.6553 12.5947C10.796 12.7353 10.875 12.9261 10.875 13.125V23.625H7.125V13.125C7.125 12.9261 7.20402 12.7353 7.34467 12.5947C7.48532 12.454 7.67609 12.375 7.875 12.375Z" fill="#333333"/>
<path d="M13.875 15.375H16.125C16.3239 15.375 16.5147 15.454 16.6553 15.5947C16.796 15.7353 16.875 15.9261 16.875 16.125V23.625H13.125V16.125C13.125 15.9261 13.204 15.7353 13.3447 15.5947C13.4853 15.454 13.6761 15.375 13.875 15.375Z" fill="#333333"/>
<path d="M19.875 12.375H22.125C22.3239 12.375 22.5147 12.454 22.6553 12.5947C22.796 12.7353 22.875 12.9261 22.875 13.125V23.625H19.125V13.125C19.125 12.9261 19.204 12.7353 19.3447 12.5947C19.4853 12.454 19.6761 12.375 19.875 12.375Z" fill="#333333"/>
<path d="M15 9.375C17.4853 9.375 19.5 7.36028 19.5 4.875C19.5 2.38972 17.4853 0.375 15 0.375C12.5147 0.375 10.5 2.38972 10.5 4.875C10.5 7.36028 12.5147 9.375 15 9.375Z" fill="#333333"/>
<path d="M15 9.75C15.9642 9.75 16.9067 9.46409 17.7084 8.92842C18.5101 8.39275 19.1349 7.63137 19.5039 6.74058C19.8729 5.84979 19.9694 4.86959 19.7813 3.92394C19.5932 2.97828 19.1289 2.10964 18.4471 1.42786C17.7654 0.746076 16.8967 0.281777 15.9511 0.093674C15.0054 -0.094429 14.0252 0.00211226 13.1344 0.371089C12.2436 0.740067 11.4823 1.36491 10.9466 2.1666C10.4109 2.96829 10.125 3.91082 10.125 4.875C10.1266 6.16745 10.6407 7.4065 11.5546 8.32039C12.4685 9.23429 13.7076 9.74841 15 9.75ZM15 0.750002C15.8158 0.750002 16.6134 0.991929 17.2917 1.44519C17.9701 1.89845 18.4988 2.54269 18.811 3.29643C19.1232 4.05018 19.2049 4.87958 19.0457 5.67975C18.8866 6.47992 18.4937 7.21493 17.9168 7.79182C17.3399 8.36871 16.6049 8.76158 15.8047 8.92074C15.0046 9.07991 14.1752 8.99822 13.4214 8.686C12.6677 8.37379 12.0234 7.84508 11.5702 7.16673C11.1169 6.48838 10.875 5.69085 10.875 4.875C10.8764 3.78141 11.3114 2.73301 12.0847 1.95972C12.858 1.18643 13.9064 0.751391 15 0.750002ZM23.2402 7.0785C23.2338 7.02039 23.2127 6.96488 23.1788 6.91725C23.1788 6.91725 23.1787 6.909 23.1727 6.90525L23.1675 6.9C23.1386 6.86246 23.1027 6.83088 23.0618 6.807C23.0058 6.77141 22.9413 6.7517 22.875 6.75H20.625C20.5255 6.75 20.4302 6.78951 20.3598 6.85984C20.2895 6.93016 20.25 7.02555 20.25 7.125C20.25 7.22446 20.2895 7.31984 20.3598 7.39017C20.4302 7.46049 20.5255 7.5 20.625 7.5H21.7725L15.0075 12.648L9.237 7.959C9.16742 7.90256 9.07994 7.87288 8.99038 7.87536C8.90082 7.87784 8.8151 7.9123 8.74875 7.9725L0.9 15.0975C0.861928 15.1301 0.830789 15.1701 0.808425 15.215C0.786061 15.2599 0.772927 15.3088 0.7698 15.3588C0.766672 15.4089 0.773615 15.459 0.790217 15.5064C0.806819 15.5537 0.832744 15.5972 0.866457 15.6343C0.900169 15.6714 0.940986 15.7014 0.986491 15.7225C1.032 15.7436 1.08126 15.7553 1.13138 15.757C1.1815 15.7587 1.23145 15.7503 1.27828 15.7324C1.3251 15.7144 1.36785 15.6873 1.404 15.6525L9.01125 8.74425L14.7607 13.416C14.826 13.469 14.9071 13.4986 14.9912 13.5C15.0753 13.5013 15.1573 13.4744 15.2242 13.4235L22.5 7.88925V9.375C22.5 9.47446 22.5395 9.56984 22.6098 9.64017C22.6802 9.71049 22.7755 9.75 22.875 9.75C22.9745 9.75 23.0698 9.71049 23.1402 9.64017C23.2105 9.56984 23.25 9.47446 23.25 9.375V7.125C23.2478 7.1093 23.2446 7.09376 23.2402 7.0785ZM16.125 15H13.875C13.5766 15 13.2905 15.1185 13.0795 15.3295C12.8685 15.5405 12.75 15.8266 12.75 16.125V23.625C12.75 23.7245 12.7895 23.8198 12.8598 23.8902C12.9302 23.9605 13.0255 24 13.125 24H16.875C16.9745 24 17.0698 23.9605 17.1402 23.8902C17.2105 23.8198 17.25 23.7245 17.25 23.625V16.125C17.25 15.8266 17.1315 15.5405 16.9205 15.3295C16.7095 15.1185 16.4234 15 16.125 15ZM16.5 23.25H13.5V16.125C13.5 16.0255 13.5395 15.9302 13.6098 15.8598C13.6802 15.7895 13.7755 15.75 13.875 15.75H16.125C16.2245 15.75 16.3198 15.7895 16.3902 15.8598C16.4605 15.9302 16.5 16.0255 16.5 16.125V23.25ZM15.375 6.75H14.625C14.4261 6.75 14.2353 6.67098 14.0947 6.53033C13.954 6.38968 13.875 6.19891 13.875 6C13.875 5.90055 13.8355 5.80516 13.7652 5.73484C13.6948 5.66451 13.5995 5.625 13.5 5.625C13.4005 5.625 13.3052 5.66451 13.2348 5.73484C13.1645 5.80516 13.125 5.90055 13.125 6C13.125 6.39783 13.283 6.77936 13.5643 7.06066C13.8456 7.34197 14.2272 7.5 14.625 7.5V7.875C14.625 7.97446 14.6645 8.06984 14.7348 8.14017C14.8052 8.21049 14.9005 8.25 15 8.25C15.0995 8.25 15.1948 8.21049 15.2652 8.14017C15.3355 8.06984 15.375 7.97446 15.375 7.875V7.5C15.7728 7.5 16.1544 7.34197 16.4357 7.06066C16.717 6.77936 16.875 6.39783 16.875 6C16.875 5.60218 16.717 5.22065 16.4357 4.93934C16.1544 4.65804 15.7728 4.5 15.375 4.5H14.625C14.4261 4.5 14.2353 4.42098 14.0947 4.28033C13.954 4.13968 13.875 3.94891 13.875 3.75C13.875 3.55109 13.954 3.36032 14.0947 3.21967C14.2353 3.07902 14.4261 3 14.625 3H15.375C15.5739 3 15.7647 3.07902 15.9053 3.21967C16.046 3.36032 16.125 3.55109 16.125 3.75C16.125 3.84946 16.1645 3.94484 16.2348 4.01517C16.3052 4.08549 16.4005 4.125 16.5 4.125C16.5995 4.125 16.6948 4.08549 16.7652 4.01517C16.8355 3.94484 16.875 3.84946 16.875 3.75C16.875 3.35218 16.717 2.97065 16.4357 2.68934C16.1544 2.40804 15.7728 2.25 15.375 2.25V1.875C15.375 1.77555 15.3355 1.68016 15.2652 1.60984C15.1948 1.53951 15.0995 1.5 15 1.5C14.9005 1.5 14.8052 1.53951 14.7348 1.60984C14.6645 1.68016 14.625 1.77555 14.625 1.875V2.25C14.2272 2.25 13.8456 2.40804 13.5643 2.68934C13.283 2.97065 13.125 3.35218 13.125 3.75C13.125 4.14783 13.283 4.52936 13.5643 4.81066C13.8456 5.09197 14.2272 5.25 14.625 5.25H15.375C15.5739 5.25 15.7647 5.32902 15.9053 5.46967C16.046 5.61032 16.125 5.80109 16.125 6C16.125 6.19891 16.046 6.38968 15.9053 6.53033C15.7647 6.67098 15.5739 6.75 15.375 6.75ZM4.125 17.25H1.875C1.57663 17.25 1.29048 17.3685 1.0795 17.5795C0.868526 17.7905 0.75 18.0766 0.75 18.375V23.625C0.75 23.7245 0.789509 23.8198 0.859835 23.8902C0.930161 23.9605 1.02554 24 1.125 24H4.875C4.97446 24 5.06984 23.9605 5.14016 23.8902C5.21049 23.8198 5.25 23.7245 5.25 23.625V18.375C5.25 18.0766 5.13147 17.7905 4.9205 17.5795C4.70952 17.3685 4.42337 17.25 4.125 17.25ZM4.5 23.25H1.5V18.375C1.5 18.2755 1.53951 18.1802 1.60984 18.1098C1.68016 18.0395 1.77554 18 1.875 18H4.125C4.22446 18 4.31984 18.0395 4.39016 18.1098C4.46049 18.1802 4.5 18.2755 4.5 18.375V23.25ZM10.125 12H7.875C7.57663 12 7.29048 12.1185 7.0795 12.3295C6.86853 12.5405 6.75 12.8266 6.75 13.125V23.625C6.75 23.7245 6.78951 23.8198 6.85983 23.8902C6.93016 23.9605 7.02554 24 7.125 24H10.875C10.9745 24 11.0698 23.9605 11.1402 23.8902C11.2105 23.8198 11.25 23.7245 11.25 23.625V13.125C11.25 12.8266 11.1315 12.5405 10.9205 12.3295C10.7095 12.1185 10.4234 12 10.125 12ZM10.5 23.25H7.5V13.125C7.5 13.0255 7.53951 12.9302 7.60983 12.8598C7.68016 12.7895 7.77554 12.75 7.875 12.75H10.125C10.2245 12.75 10.3198 12.7895 10.3902 12.8598C10.4605 12.9302 10.5 13.0255 10.5 13.125V23.25ZM22.125 12H19.875C19.5766 12 19.2905 12.1185 19.0795 12.3295C18.8685 12.5405 18.75 12.8266 18.75 13.125V23.625C18.75 23.7245 18.7895 23.8198 18.8598 23.8902C18.9302 23.9605 19.0255 24 19.125 24H22.875C22.9745 24 23.0698 23.9605 23.1402 23.8902C23.2105 23.8198 23.25 23.7245 23.25 23.625V13.125C23.25 12.8266 23.1315 12.5405 22.9205 12.3295C22.7095 12.1185 22.4234 12 22.125 12ZM22.5 23.25H19.5V13.125C19.5 13.0255 19.5395 12.9302 19.6098 12.8598C19.6802 12.7895 19.7755 12.75 19.875 12.75H22.125C22.2245 12.75 22.3198 12.7895 22.3902 12.8598C22.4605 12.9302 22.5 13.0255 22.5 13.125V23.25Z" fill="#333333"/>
</g>
<defs>
<clipPath id="clip0_330_455">
<rect width="24" height="24" fill="white"/>
</clipPath>
</defs>
</svg>
