<svg width="24" height="24" viewBox="0 0 24 24" fill="none" xmlns="http://www.w3.org/2000/svg">
<path d="M22.4708 12.0089H24C24.0056 6.10043 19.2204 1.3061 13.3119 1.30051C7.68871 1.29516 3.02117 5.64401 2.62945 11.2535L1.08114 9.70518L0 10.7856L3.28777 14.0733L6.57555 10.7856L5.49135 9.70518L4.17547 11.0211C4.72966 5.98416 9.26215 2.35016 14.2991 2.90435C18.944 3.41544 22.4628 7.33592 22.4708 12.0089Z" fill="#333333"/>
<path d="M10.6249 22.3777C11.1567 22.5136 11.6981 22.6092 12.2443 22.6636L12.3972 21.1413C11.9288 21.0949 11.4646 21.0129 11.0087 20.8959L10.6249 22.3777Z" fill="#333333"/>
<path d="M4.8368 15.5375L3.42535 16.1263C3.637 16.6326 3.88698 17.1221 4.17313 17.5905L5.47754 16.793C5.23248 16.3913 5.0183 15.9716 4.8368 15.5375Z" fill="#333333"/>
<path d="M7.61157 21.0763C8.07549 21.368 8.5612 21.6236 9.06431 21.8409L9.67064 20.4371C9.23869 20.2505 8.82174 20.031 8.42358 19.7803L7.61157 21.0763Z" fill="#333333"/>
<path d="M6.30411 17.9369L5.13733 18.9255C5.49177 19.3443 5.87775 19.7354 6.29187 20.0953L7.29503 18.9408C6.93944 18.6321 6.60813 18.2965 6.30411 17.9369Z" fill="#333333"/>
<path d="M18.9943 19.1962L19.9477 20.3882C20.377 20.0462 20.7794 19.6717 21.1512 19.268L20.0242 18.232C19.7058 18.579 19.3615 18.9013 18.9943 19.1962Z" fill="#333333"/>
<path d="M13.8048 21.1703L13.8882 22.6995C14.4368 22.6694 14.9823 22.5971 15.5198 22.4832L15.2017 20.9868C14.7415 21.0837 14.2745 21.1451 13.8048 21.1703Z" fill="#333333"/>
<path d="M20.9011 17.1241L22.1703 17.9774C22.4764 17.5217 22.7471 17.0432 22.98 16.5461L21.5946 15.8977C21.3953 16.3237 21.1634 16.7338 20.9011 17.1241Z" fill="#333333"/>
<path d="M16.5535 20.5869L17.0987 22.016C17.6118 21.8199 18.109 21.5845 18.5858 21.3118L17.8266 19.9844C17.4182 20.2174 16.9926 20.4189 16.5535 20.5869Z" fill="#333333"/>
</svg>
