<svg width="30" height="30" viewBox="0 0 30 30" fill="none" xmlns="http://www.w3.org/2000/svg">
<path d="M25.1997 25.05C25.1997 26.0397 24.3894 26.8497 23.3997 26.8497H9.89967C8.90997 26.8497 8.09967 26.0397 8.09967 25.05V8.25C8.09967 7.2597 8.90997 6.45 9.89967 6.45H23.4003C24.3903 6.45 25.2003 7.26 25.2003 8.25L25.1997 25.05Z" fill="#333333"/>
<path d="M8.09968 8.25C8.09968 7.2597 8.90998 6.45 9.89968 6.45H21.9003V4.95C21.9003 3.96 21.0903 3.15 20.1003 3.15H6.59968C5.60998 3.15 4.79968 3.96 4.79968 4.95V21.75C4.79968 22.7397 5.60998 23.5497 6.59968 23.5497H8.09968V8.25Z" fill="#4F4F4F"/>
<path d="M12.3003 13.7976H21.2997C21.5481 13.7976 21.7497 13.596 21.7497 13.3476C21.7497 13.0989 21.5481 12.8976 21.2997 12.8976H12.3003C12.0519 12.8976 11.8503 13.0989 11.8503 13.3476C11.8503 13.596 12.0519 13.7976 12.3003 13.7976ZM12.3003 10.7976H21.2997C21.5481 10.7976 21.7497 10.596 21.7497 10.3476C21.7497 10.0989 21.5481 9.8976 21.2997 9.8976H12.3003C12.0519 9.8976 11.8503 10.0989 11.8503 10.3476C11.8503 10.596 12.0519 10.7976 12.3003 10.7976ZM12.3003 16.7976H21.2997C21.5481 16.7976 21.7497 16.596 21.7497 16.3476C21.7497 16.0989 21.5481 15.8976 21.2997 15.8976H12.3003C12.0519 15.8976 11.8503 16.0989 11.8503 16.3476C11.8503 16.596 12.0519 16.7976 12.3003 16.7976Z" fill="#FEE9DF"/>
<path d="M16.1307 21.843C16.1742 21.6681 16.1997 21.4863 16.1997 21.2979C16.1997 20.055 15.1923 19.0479 13.9497 19.0479C12.7071 19.0479 11.6997 20.055 11.6997 21.2979C11.6997 22.5408 12.7071 23.5479 13.9497 23.5479C14.1381 23.5479 14.3199 23.5224 14.4945 23.4786L13.9497 21.2979L16.1307 21.843Z" fill="#FEE9DF"/>
<path d="M16.1307 21.843L13.9497 21.2979L14.4945 23.4786C15.2985 23.2779 15.93 22.6467 16.1307 21.843Z" fill="#333333"/>
<path d="M21.9213 20.2341C22.0005 20.3151 22.0497 20.4255 22.0497 20.5476V23.2476C22.0497 23.496 21.8481 23.6976 21.5997 23.6976C21.3513 23.6976 21.1497 23.496 21.1497 23.2476V21.5622L18.9285 19.3407V19.3419C19.0032 19.4223 19.0497 19.5291 19.0497 19.6476V23.2476C19.0497 23.496 18.8481 23.6976 18.5997 23.6976C18.3513 23.6976 18.1497 23.496 18.1497 23.2476V22.3359L15.7029 19.8891C16.0131 20.2746 16.1997 20.7642 16.1997 21.2976C16.1997 21.486 16.1739 21.6678 16.1307 21.8427C15.93 22.6467 15.2988 23.2779 14.4948 23.4783C14.3202 23.5221 14.1384 23.5476 13.95 23.5476C13.4079 23.5476 12.9105 23.3556 12.522 23.0364L16.335 26.85H23.3997C24.3894 26.85 25.1997 26.04 25.1997 25.0503V23.5125L21.9213 20.2341Z" fill="#333333"/>
<path d="M19.6497 21.4479V23.2479C19.6497 23.4963 19.8513 23.6979 20.0997 23.6979C20.3481 23.6979 20.5497 23.4963 20.5497 23.2479V21.4479C20.5497 21.1992 20.3481 20.9979 20.0997 20.9979C19.8513 20.9979 19.6497 21.1992 19.6497 21.4479ZM18.1497 19.6479V23.2479C18.1497 23.4963 18.3513 23.6979 18.5997 23.6979C18.8481 23.6979 19.0497 23.4963 19.0497 23.2479V19.6479C19.0497 19.3992 18.8481 19.1979 18.5997 19.1979C18.3513 19.1979 18.1497 19.3992 18.1497 19.6479ZM21.1497 20.5479V23.2479C21.1497 23.4963 21.3513 23.6979 21.5997 23.6979C21.8481 23.6979 22.0497 23.4963 22.0497 23.2479V20.5479C22.0497 20.2992 21.8481 20.0979 21.5997 20.0979C21.3513 20.0979 21.1497 20.2992 21.1497 20.5479Z" fill="#FEE9DF"/>
</svg>
