<svg width="24" height="24" viewBox="0 0 24 24" fill="none" xmlns="http://www.w3.org/2000/svg">
<g clip-path="url(#clip0_330_68)">
<path d="M19.62 7.5H19.545H19.62ZM11.25 14.9175L5.71504 20.46C5.21064 20.8579 4.57785 21.0569 3.93651 21.0195C3.29517 20.9821 2.68982 20.7108 2.23509 20.257C1.78037 19.8032 1.50784 19.1984 1.46913 18.5572C1.43042 17.9159 1.62821 17.2827 2.02504 16.7775L7.57504 11.2275L11.25 14.9175ZM22.5 4.78125C22.5138 6.0165 22.0559 7.2105 21.2198 8.11983C20.3836 9.02915 19.2321 9.58534 18 9.675C17.5994 9.70476 17.1966 9.68714 16.8 9.6225H16.7813C16.721 9.60726 16.6578 9.60726 16.5975 9.6225L16.5225 9.6525C16.5024 9.66278 16.4835 9.67537 16.4663 9.69L16.44 9.7125L16.4213 9.73875L13.5 12.6638L9.81379 8.97375L12.75 6.05625C12.7712 6.03979 12.789 6.01942 12.8025 5.99625C12.8229 5.97785 12.8384 5.95465 12.8475 5.92875C12.8589 5.90772 12.8665 5.88488 12.87 5.86125C12.8829 5.80573 12.8829 5.74802 12.87 5.6925C12.8005 5.29776 12.7816 4.89577 12.8138 4.49625C12.9008 3.26484 13.4552 2.11328 14.3636 1.27738C15.2721 0.441479 16.4657 -0.0155082 17.7 7.372e-07L15.135 2.5725C15.1135 2.58964 15.0945 2.60985 15.0788 2.6325L15.0488 2.67C15.0117 2.73224 14.9935 2.80387 14.9963 2.87625C14.9944 2.89495 14.9944 2.9138 14.9963 2.9325L15.5625 6.58125C15.5726 6.66366 15.6097 6.7404 15.6681 6.79944C15.7264 6.85848 15.8028 6.89649 15.885 6.9075L19.545 7.5H19.62C19.6767 7.50076 19.7328 7.48866 19.7841 7.46463C19.8354 7.4406 19.8806 7.40526 19.9163 7.36125L22.5 4.78125Z" fill="#333333"/>
<path d="M14.25 14.4825L13.095 15.6412L12.0975 14.6475L7.86 10.41L6.04875 8.62499C6.01402 8.58956 5.9726 8.56137 5.9269 8.54206C5.88119 8.52275 5.83211 8.5127 5.7825 8.51249L4.0275 8.48999L2.31 4.90874L3.50625 3.70874L7.06875 5.42999L7.095 7.18499C7.09569 7.23487 7.10633 7.28411 7.12629 7.32983C7.14625 7.37555 7.17513 7.41682 7.21125 7.45124L9.0225 9.26624L13.2337 13.5L14.25 14.4825ZM22.08 19.455L16.2225 13.5975L15.0637 14.7525L13.3537 16.4625L12.3337 17.4825L18.195 23.3475C18.6166 23.7666 19.1868 24.0018 19.7812 24.0018C20.3757 24.0018 20.9459 23.7666 21.3675 23.3475L22.08 22.6312C22.5002 22.2095 22.7361 21.6385 22.7361 21.0431C22.7361 20.4478 22.5002 19.8767 22.08 19.455ZM19.9537 22.8525C19.9187 22.89 19.8763 22.9198 19.8292 22.9402C19.7821 22.9607 19.7313 22.9712 19.68 22.9712C19.6287 22.9712 19.5779 22.9607 19.5308 22.9402C19.4837 22.9198 19.4413 22.89 19.4062 22.8525L14.4112 17.8612C14.3391 17.7876 14.2987 17.6887 14.2987 17.5856C14.2987 17.4826 14.3391 17.3836 14.4112 17.31C14.4463 17.2731 14.4884 17.2438 14.5352 17.2237C14.5819 17.2036 14.6323 17.1933 14.6831 17.1933C14.734 17.1933 14.7843 17.2036 14.8311 17.2237C14.8778 17.2438 14.92 17.2731 14.955 17.31L19.9537 22.3087C19.9906 22.3438 20.02 22.3859 20.0401 22.4327C20.0601 22.4794 20.0705 22.5298 20.0705 22.5806C20.0705 22.6315 20.0601 22.6818 20.0401 22.7286C20.02 22.7753 19.9906 22.8175 19.9537 22.8525ZM21.5925 21.2175C21.5569 21.2538 21.5143 21.2826 21.4672 21.3019C21.4201 21.3212 21.3696 21.3308 21.3187 21.33C21.2153 21.3293 21.116 21.2891 21.0412 21.2175L16.05 16.2187C15.9774 16.1466 15.9364 16.0486 15.9361 15.9463C15.9357 15.844 15.976 15.7457 16.0481 15.6731C16.1202 15.6005 16.2182 15.5595 16.3205 15.5592C16.4229 15.5588 16.5211 15.5991 16.5937 15.6712L21.5925 20.67C21.63 20.7051 21.6598 20.7475 21.6802 20.7946C21.7007 20.8416 21.7112 20.8924 21.7112 20.9437C21.7112 20.9951 21.7007 21.0458 21.6802 21.0929C21.6598 21.14 21.63 21.1824 21.5925 21.2175Z" fill="#333333"/>
</g>
<defs>
<clipPath id="clip0_330_68">
<rect width="24" height="24" fill="white"/>
</clipPath>
</defs>
</svg>
