<svg width="24" height="24" viewBox="0 0 24 24" fill="none" xmlns="http://www.w3.org/2000/svg">
<g clip-path="url(#clip0_330_12)">
<path d="M12.001 24C18.6263 24 23.9971 18.6275 23.9971 12C23.9971 5.37259 18.6263 0 12.001 0C5.37574 0 0.00488281 5.37259 0.00488281 12C0.00488281 18.6275 5.37574 24 12.001 24Z" fill="#333333"/>
<path d="M5.21781 12.2384L10.0699 17.0905C10.2815 17.3021 10.6246 17.3021 10.8363 17.0905L18.802 9.12473C19.0136 8.91311 19.0136 8.56998 18.802 8.35837L17.3521 6.90847C17.1405 6.69685 16.7974 6.69685 16.5857 6.90847L10.7919 12.7022C10.5803 12.9138 10.2372 12.9138 10.0256 12.7022L7.42914 10.1058C7.2217 9.89835 6.88682 9.89367 6.67366 10.0952L5.22868 11.4614C5.00689 11.6711 5.00197 12.0226 5.21781 12.2384Z" fill="#FEE9DF"/>
<path d="M17.3521 6.90841C17.1404 6.69679 16.7973 6.69679 16.5857 6.90841L11.9838 11.5104V15.9429L18.802 9.12471C19.0136 8.9131 19.0136 8.56997 18.802 8.35831L17.3521 6.90841Z" fill="#FEE9DF"/>
</g>
<defs>
<clipPath id="clip0_330_12">
<rect width="24" height="24" fill="white"/>
</clipPath>
</defs>
</svg>
